<?xml version="1.0" encoding="iso-8859-1"?>
<!-- Generator: Adobe Illustrator 19.1.0, SVG Export Plug-In . SVG Version: 6.00 Build 0)  -->
<svg version="1.1" id="Capa_1" xmlns="http://www.w3.org/2000/svg" xmlns:xlink="http://www.w3.org/1999/xlink" x="0px" y="0px"
	 viewBox="0 0 62.916 62.916" style="enable-background:new 0 0 62.916 62.916;" xml:space="preserve">
<g>
	<g id="group-10svg">
		<path id="path-1" d="M51.629,43.395H15.142c-0.692,0-1.292-0.472-1.457-1.143l-4.901-20c-0.109-0.448-0.007-0.92,0.278-1.283
			c0.284-0.362,0.718-0.574,1.179-0.574h11.248c0.829,0,1.5,0.671,1.5,1.5s-0.671,1.5-1.5,1.5h-9.335l4.165,17h34.367l8.162-17
			H48.489c-0.828,0-1.5-0.671-1.5-1.5s0.672-1.5,1.5-1.5h12.743c0.515,0,0.995,0.265,1.269,0.701
			c0.275,0.437,0.306,0.983,0.083,1.448l-9.602,20C52.732,43.063,52.206,43.395,51.629,43.395z"/>
		<path id="path-2" d="M60.989,54.395h-3.5c-0.828,0-1.5-0.671-1.5-1.5s0.672-1.5,1.5-1.5h2.427v-8h-42.99l1.397,8h2.166
			c0.829,0,1.5,0.671,1.5,1.5s-0.671,1.5-1.5,1.5h-3.426c-0.729,0-1.353-0.524-1.478-1.242l-1.921-11
			c-0.076-0.436,0.044-0.884,0.329-1.223c0.286-0.339,0.705-0.535,1.149-0.535h45.847c0.829,0,1.927,0.671,1.927,1.5v11
			C62.916,53.723,61.818,54.395,60.989,54.395z"/>
		<path id="path-3" d="M43.489,54.395h-10c-0.828,0-1.5-0.671-1.5-1.5s0.672-1.5,1.5-1.5h10c0.829,0,1.5,0.671,1.5,1.5
			S44.318,54.395,43.489,54.395z"/>
		<path id="path-4" d="M50.381,60.521c-4.004,0-7.262-3.257-7.262-7.261s3.258-7.262,7.262-7.262s7.261,3.258,7.261,7.262
			S54.385,60.521,50.381,60.521z M50.381,48.999c-2.35,0-4.262,1.912-4.262,4.262c0,2.349,1.912,4.261,4.262,4.261
			c2.35,0,4.261-1.912,4.261-4.261C54.642,50.91,52.731,48.999,50.381,48.999z"/>
		<path id="path-5" d="M27.288,60.521c-4.004,0-7.26-3.257-7.26-7.261s3.256-7.262,7.26-7.262s7.262,3.258,7.262,7.262
			S31.292,60.521,27.288,60.521z M27.288,48.999c-2.349,0-4.26,1.912-4.26,4.262c0,2.349,1.911,4.261,4.26,4.261
			c2.35,0,4.262-1.912,4.262-4.261C31.55,50.91,29.638,48.999,27.288,48.999z"/>
		<path id="path-6" d="M17.062,53.8c-0.676,0-1.29-0.46-1.457-1.146L6.002,13.163c-0.027-0.117-0.042-0.236-0.042-0.355
			c0-0.665-0.674-1.227-1.472-1.227C3.654,11.582,3,12.271,3,13.153c0,0.542,0.266,1.042,0.712,1.338
			c0.69,0.458,0.878,1.389,0.42,2.079c-0.459,0.691-1.388,0.879-2.08,0.421C0.768,16.136,0,14.702,0,13.153
			c0-2.52,2.014-4.571,4.488-4.571c2.395,0,4.356,1.789,4.467,4.027l9.566,39.337c0.195,0.805-0.299,1.616-1.104,1.812
			C17.298,53.786,17.179,53.8,17.062,53.8z"/>
		<path id="path-7" d="M35.707,33.77L35.707,33.77c-1.399,0-2.708-0.708-3.5-1.894l-6.694-10.44
			c-0.876-1.311-0.898-3.212-0.038-4.819c0.744-1.391,2.01-2.222,3.386-2.222h2.055V5.122c0-1.469,1.148-2.728,2.436-2.728h6
			c0.357,0,2.564,0.132,2.564,2.728v9.272h0.696c1.416,0,2.702,0.848,3.437,2.269c0.825,1.594,0.761,3.47-0.165,4.78l-7.045,10.688
			C38.094,33.187,36.962,33.77,35.707,33.77z M28.861,17.394c-0.295,0-0.576,0.329-0.741,0.636
			c-0.322,0.605-0.365,1.362-0.097,1.763l6.694,10.439c0.261,0.39,0.686,0.537,0.99,0.537c0.281,0,0.5-0.111,0.655-0.33
			l7.045-10.688c0.295-0.419,0.274-1.136-0.022-1.709c-0.162-0.313-0.451-0.648-0.773-0.648h-3.696v-12h-5.42
			c-0.002,0.001,0.42,0.003,0.42,0.005v11.995H28.861z"/>
	</g>
</g>
<g>
</g>
<g>
</g>
<g>
</g>
<g>
</g>
<g>
</g>
<g>
</g>
<g>
</g>
<g>
</g>
<g>
</g>
<g>
</g>
<g>
</g>
<g>
</g>
<g>
</g>
<g>
</g>
<g>
</g>
</svg>
