<?xml version="1.0" encoding="iso-8859-1"?>
<!-- Generator: Adobe Illustrator 19.1.0, SVG Export Plug-In . SVG Version: 6.00 Build 0)  -->
<svg version="1.1" id="Capa_1" xmlns="http://www.w3.org/2000/svg" xmlns:xlink="http://www.w3.org/1999/xlink" x="0px" y="0px"
	 viewBox="0 0 63.249 63.249" style="enable-background:new 0 0 63.249 63.249;" xml:space="preserve">
<g>
	<g id="group-11svg">
		<path id="path-1_1_" d="M51.629,43.648H15.142c-0.692,0-1.292-0.472-1.458-1.143l-4.9-20c-0.109-0.448-0.008-0.92,0.277-1.283
			c0.285-0.362,0.719-0.574,1.18-0.574h11.581c0.828,0,1.5,0.671,1.5,1.5s-0.672,1.5-1.5,1.5h-9.669l4.165,17h34.367l8.162-17
			H48.822c-0.828,0-1.5-0.671-1.5-1.5s0.672-1.5,1.5-1.5H61.23c0.516,0,0.996,0.265,1.27,0.701c0.274,0.437,0.306,0.983,0.083,1.448
			l-9.602,20C52.731,43.317,52.206,43.648,51.629,43.648z"/>
		<path id="path-2_1_" d="M61.322,54.648h-3.5c-0.828,0-1.5-0.671-1.5-1.5s0.672-1.5,1.5-1.5h2.427v-8H16.926l1.396,8h2.5
			c0.828,0,1.5,0.671,1.5,1.5s-0.672,1.5-1.5,1.5h-3.761c-0.728,0-1.352-0.524-1.477-1.242l-1.92-11
			c-0.076-0.437,0.044-0.884,0.329-1.223c0.285-0.339,0.705-0.535,1.149-0.535h46.18c0.828,0,1.927,0.671,1.927,1.5v11
			C63.249,53.977,62.15,54.648,61.322,54.648z"/>
		<path id="path-3_1_" d="M43.822,54.648h-10c-0.828,0-1.5-0.671-1.5-1.5s0.672-1.5,1.5-1.5h10c0.828,0,1.5,0.671,1.5,1.5
			S44.65,54.648,43.822,54.648z"/>
		<path id="path-4_1_" d="M50.38,60.595c-4.004,0-7.261-3.257-7.261-7.261c0-4.003,3.257-7.261,7.261-7.261s7.262,3.258,7.262,7.261
			C57.642,57.338,54.384,60.595,50.38,60.595z M50.38,49.073c-2.35,0-4.261,1.911-4.261,4.261c0,2.35,1.911,4.261,4.261,4.261
			c2.349,0,4.262-1.911,4.262-4.261C54.642,50.984,52.729,49.073,50.38,49.073z"/>
		<path id="path-5_1_" d="M27.288,60.595c-4.004,0-7.262-3.257-7.262-7.261c0-4.003,3.258-7.261,7.262-7.261
			s7.261,3.258,7.261,7.261C34.549,57.338,31.292,60.595,27.288,60.595z M27.288,49.073c-2.35,0-4.262,1.911-4.262,4.261
			c0,2.35,1.912,4.261,4.262,4.261s4.261-1.911,4.261-4.261C31.549,50.984,29.638,49.073,27.288,49.073z"/>
		<path id="path-6_1_" d="M17.06,53.874c-0.675,0-1.29-0.46-1.457-1.146L6.002,13.237c-0.027-0.116-0.042-0.235-0.042-0.355
			c0-0.665-0.675-1.226-1.473-1.226C3.653,11.656,3,12.346,3,13.227c0,0.542,0.266,1.042,0.712,1.337
			c0.689,0.458,0.878,1.389,0.42,2.08c-0.458,0.69-1.388,0.878-2.08,0.42C0.767,16.21,0,14.776,0,13.227
			c0-2.521,2.013-4.571,4.487-4.571c2.396,0,4.357,1.788,4.468,4.026l9.564,39.337c0.196,0.805-0.298,1.616-1.103,1.812
			C17.297,53.86,17.178,53.874,17.06,53.874z"/>
		<path id="path-7_1_" d="M39.351,33.648h-5.999c-1.49,0-2.103-0.931-2.103-2.264v-9.736H28.86c-1.41,0-2.691-0.824-3.429-2.204
			c-0.809-1.513-0.771-3.33,0.097-4.629l6.667-10.283c0.789-1.182,2.081-1.878,3.466-1.878c1.273,0,2.421,0.592,3.15,1.623
			l7.092,10.555c0.885,1.25,0.964,3.054,0.182,4.567c-0.73,1.408-2.027,2.249-3.474,2.249h-0.362v9.736
			C42.249,32.717,40.807,33.648,39.351,33.648z M34.249,30.645l5,0.003v-12h3.362c0.45,0,0.733-0.48,0.809-0.628
			c0.265-0.512,0.27-1.122,0.014-1.485L36.342,5.98c-0.188-0.265-0.476-0.326-0.681-0.326c-0.294,0-0.7,0.138-0.96,0.527
			l-6.667,10.284c-0.261,0.39-0.238,1.041,0.043,1.565c0.077,0.145,0.362,0.618,0.783,0.618h5.389V30.645z"/>
	</g>
</g>
<g>
</g>
<g>
</g>
<g>
</g>
<g>
</g>
<g>
</g>
<g>
</g>
<g>
</g>
<g>
</g>
<g>
</g>
<g>
</g>
<g>
</g>
<g>
</g>
<g>
</g>
<g>
</g>
<g>
</g>
</svg>
