<?xml version="1.0" encoding="iso-8859-1"?>
<!-- Generator: Adobe Illustrator 19.1.0, SVG Export Plug-In . SVG Version: 6.00 Build 0)  -->
<svg version="1.1" id="Capa_1" xmlns="http://www.w3.org/2000/svg" xmlns:xlink="http://www.w3.org/1999/xlink" x="0px" y="0px"
	 viewBox="0 0 63.536 63.536" style="enable-background:new 0 0 63.536 63.536;" xml:space="preserve">
<g>
	<g id="group-12svg">
		<path id="path-1_2_" d="M42.536,53.768c0,0.829-0.671,1.5-1.5,1.5h-17c-0.828,0-1.5-0.671-1.5-1.5v-17c0-0.829,0.672-1.5,1.5-1.5
			h17c0.829,0,1.5,0.671,1.5,1.5V53.768z M25.536,52.268h14v-14h-14V52.268z"/>
		<path id="path-2_2_" d="M53.609,55.268h-44c-0.828,0-1.073-0.671-1.073-1.5v-23.5c0-0.829,0.672-1.5,1.5-1.5s1.5,0.671,1.5,1.5v22
			h41v-22c0-0.829,0.672-1.5,1.5-1.5c0.828,0,1.5,0.671,1.5,1.5v23.5C55.536,54.597,54.438,55.268,53.609,55.268z"/>
		<path id="path-3_2_" d="M54.383,31.528c-1.487,0-5.467-0.135-7.595-1.444c-2.115,1.309-6.065,1.443-7.556,1.443
			c-1.479,0-5.352-0.134-7.479-1.433c-1.998,1.25-5.649,1.426-7.533,1.426c-1.485,0-5.363-0.135-7.485-1.452
			c-2.004,1.226-5.62,1.4-7.495,1.4c-4.424,0-7.921-1.202-8.906-3.062C0.025,27.821,0,27.129,0,26.931
			c0-0.23,0.052-0.457,0.154-0.663l8.46-17.163c0.252-0.512,0.774-0.837,1.345-0.837h43.15c0.574,0,1.097,0.327,1.348,0.842
			l8.714,17.404c0.1,0.205,0.365,0.43,0.365,0.658v0.688C63.536,31.264,56.48,31.528,54.383,31.528z M48.207,27.495
			c0.56,0.402,2.862,1.033,6.176,1.033c3.267,0,5.153-0.587,6.153-0.974v-0.035l-8.363-16.251H10.892L3.086,27.105
			c0.524,0.449,2.54,1.363,6.15,1.363c3.469,0,5.408-0.61,5.943-0.963c0.266-1.84,2.815-1.87,3.087-0.02
			c0.555,0.402,2.637,1.035,5.941,1.035c3.47,0,5.41-0.623,5.942-0.983c0.258-1.851,2.815-1.886,3.087-0.04
			c0.557,0.4,2.639,1.03,5.943,1.03c3.298,0,5.375-0.6,5.941-0.986C45.377,25.691,47.933,25.652,48.207,27.495z"/>
	</g>
</g>
<g>
</g>
<g>
</g>
<g>
</g>
<g>
</g>
<g>
</g>
<g>
</g>
<g>
</g>
<g>
</g>
<g>
</g>
<g>
</g>
<g>
</g>
<g>
</g>
<g>
</g>
<g>
</g>
<g>
</g>
</svg>
