<?xml version="1.0" encoding="iso-8859-1"?>
<!-- Generator: Adobe Illustrator 19.1.0, SVG Export Plug-In . SVG Version: 6.00 Build 0)  -->
<svg version="1.1" id="Capa_1" xmlns="http://www.w3.org/2000/svg" xmlns:xlink="http://www.w3.org/1999/xlink" x="0px" y="0px"
	 viewBox="0 0 63.119 63.119" style="enable-background:new 0 0 63.119 63.119;" xml:space="preserve">
<g>
	<g id="group-13svg">
		<path id="path-1_3_" d="M47.119,53.56c0,0.829-0.671,1.5-1.5,1.5h-9c-0.829,0-1.5-0.671-1.5-1.5v-13c0-0.829,0.671-1.5,1.5-1.5h9
			c0.829,0,1.5,0.671,1.5,1.5V53.56z M38.119,52.06h6v-10h-6V52.06z"/>
		<path id="path-2_3_" d="M29.119,53.56c0,0.829-0.671,1.5-1.5,1.5h-9c-0.829,0-1.5-0.671-1.5-1.5v-13c0-0.829,0.671-1.5,1.5-1.5h9
			c0.829,0,1.5,0.671,1.5,1.5V53.56z M20.119,52.06h6v-10h-6V52.06z"/>
		<path id="path-3_3_" d="M53.192,55.06h-44c-0.828,0-1.073-0.671-1.073-1.5v-23.5c0-0.829,0.672-1.5,1.5-1.5s1.5,0.671,1.5,1.5v22
			h41v-22c0-0.829,0.672-1.5,1.5-1.5s1.5,0.671,1.5,1.5v23.5C55.119,54.389,54.02,55.06,53.192,55.06z"/>
		<path id="path-4_2_" d="M9.237,30.821c-4.444,0-7.939-1.178-8.904-2.999C0.023,27.237,0,26.642,0,26.472
			c0-0.233,0.055-0.463,0.158-0.671L8.619,8.889C8.874,8.38,9.392,8.059,9.961,8.059H53.11c0.578,0,1.105,0.332,1.354,0.853
			l8.295,16.904c0.097,0.202,0.36,0.423,0.36,0.647v0.688c0,3.31-6.319,3.668-8.944,3.668c-1.448,0-5.321-0.135-7.402-1.434
			c-2.119,1.3-6.053,1.434-7.54,1.434c-1.484,0-5.371-0.135-7.495-1.443c-2.116,1.309-6.025,1.443-7.516,1.443
			c-1.483,0-5.351-0.135-7.475-1.442C14.632,30.687,10.728,30.821,9.237,30.821z M3.123,26.58c0.531,0.385,2.538,1.241,6.114,1.241
			c3.298,0,5.375-0.601,5.942-0.987c0.256-1.851,2.814-1.89,3.086-0.045c0.558,0.4,2.639,1.03,5.944,1.03
			c3.298,0,5.375-0.6,5.941-0.986c0.257-1.851,2.814-1.89,3.087-0.044c0.558,0.4,2.639,1.03,5.942,1.03
			c3.298,0,5.376-0.601,5.942-0.986c0.259-1.86,2.839-1.888,3.092-0.02c0.493,0.364,2.578,1.006,5.962,1.006
			c3.335,0,4.944-0.597,5.944-0.95v-0.066l-7.954-15.744H10.887L3.123,26.58z"/>
		<path id="path-5_2_" d="M40.692,36.06h-18c-0.828,0-1.5-0.671-1.5-1.5c0-0.829,0.672-1.5,1.5-1.5h18c0.828,0,1.5,0.671,1.5,1.5
			C42.192,35.389,41.52,36.06,40.692,36.06z"/>
	</g>
</g>
<g>
</g>
<g>
</g>
<g>
</g>
<g>
</g>
<g>
</g>
<g>
</g>
<g>
</g>
<g>
</g>
<g>
</g>
<g>
</g>
<g>
</g>
<g>
</g>
<g>
</g>
<g>
</g>
<g>
</g>
</svg>
