<?xml version="1.0" encoding="iso-8859-1"?>
<!-- Generator: Adobe Illustrator 19.1.0, SVG Export Plug-In . SVG Version: 6.00 Build 0)  -->
<svg version="1.1" id="Capa_1" xmlns="http://www.w3.org/2000/svg" xmlns:xlink="http://www.w3.org/1999/xlink" x="0px" y="0px"
	 viewBox="0 0 63.285 63.285" style="enable-background:new 0 0 63.285 63.285;" xml:space="preserve">
<g>
	<g id="group-14svg">
		<path id="path-1_4_" d="M53.358,55.142h-44c-0.828,0-1.073-0.671-1.073-1.5v-23.5c0-0.829,0.672-1.5,1.5-1.5s1.5,0.671,1.5,1.5v22
			h41v-22c0-0.829,0.672-1.5,1.5-1.5c0.828,0,1.5,0.671,1.5,1.5v23.5C55.285,54.471,54.187,55.142,53.358,55.142z"/>
		<path id="path-2_4_" d="M44.358,47.142h-26c-0.828,0-1.073-0.671-1.073-1.5v-15.5c0-0.829,0.672-1.5,1.5-1.5
			c0.828,0,1.5,0.671,1.5,1.5v14h23v-14c0-0.829,0.672-1.5,1.5-1.5c0.828,0,1.5,0.671,1.5,1.5v15.5
			C46.285,46.471,45.187,47.142,44.358,47.142z"/>
		<path id="path-3_4_" d="M54.258,31.747c-1.459,0-5.355-0.133-7.458-1.425c-2,1.247-5.685,1.423-7.567,1.423
			c-1.48,0-5.355-0.134-7.481-1.435c-2,1.248-5.648,1.424-7.531,1.424c-1.491,0-5.391-0.136-7.507-1.468
			c-2.01,1.207-5.606,1.377-7.474,1.377c-4.344,0-7.924-1.247-8.906-3.105C0.033,27.972,0,27.257,0,26.977
			c0-0.228,0.051-0.453,0.152-0.658l8.46-17.335C8.863,8.469,9.387,8.142,9.96,8.142h43.15c0.584,0,1.115,0.338,1.361,0.868
			l8.461,17.749c0.092,0.197,0.353,0.413,0.353,0.632v0.687C63.285,31.389,56.909,31.747,54.258,31.747z M48.21,27.729
			c0.541,0.395,2.794,1.017,6.048,1.017c3.374,0,5.027-0.603,6.027-0.96v-0.064l-8.132-16.58H10.897L3.053,27.213
			c0.451,0.437,2.48,1.429,6.183,1.429c3.469,0,5.407-0.597,5.944-0.945c0.268-1.83,2.818-1.856,3.087-0.004
			c0.555,0.404,2.637,1.04,5.941,1.04c3.47,0,5.409-0.621,5.941-0.981c0.261-1.849,2.816-1.884,3.088-0.039
			c0.557,0.401,2.638,1.032,5.943,1.032c3.298,0,5.375-0.601,5.941-0.986C45.381,25.903,47.948,25.872,48.21,27.729z"/>
	</g>
</g>
<g>
</g>
<g>
</g>
<g>
</g>
<g>
</g>
<g>
</g>
<g>
</g>
<g>
</g>
<g>
</g>
<g>
</g>
<g>
</g>
<g>
</g>
<g>
</g>
<g>
</g>
<g>
</g>
<g>
</g>
</svg>
