<?xml version="1.0" encoding="iso-8859-1"?>
<!-- Generator: Adobe Illustrator 19.1.0, SVG Export Plug-In . SVG Version: 6.00 Build 0)  -->
<svg version="1.1" id="Capa_1" xmlns="http://www.w3.org/2000/svg" xmlns:xlink="http://www.w3.org/1999/xlink" x="0px" y="0px"
	 viewBox="0 0 63.566 63.566" style="enable-background:new 0 0 63.566 63.566;" xml:space="preserve">
<g>
	<g id="group-15svg">
		<path id="path-1_5_" d="M53.64,60.283h-44c-0.828,0-1.074-0.671-1.074-1.5v-20.5c0-0.829,0.672-1.5,1.5-1.5
			c0.829,0,1.5,0.671,1.5,1.5v19h41v-19c0-0.829,0.672-1.5,1.5-1.5c0.829,0,1.5,0.671,1.5,1.5v20.5
			C55.566,59.612,54.468,60.283,53.64,60.283z"/>
		<path id="path-2_5_" d="M44.64,54.283h-26c-0.828,0-1.074-0.671-1.074-1.5v-14.5c0-0.829,0.672-1.5,1.5-1.5
			c0.829,0,1.5,0.671,1.5,1.5v13h23v-13c0-0.829,0.672-1.5,1.5-1.5c0.829,0,1.5,0.671,1.5,1.5v14.5
			C46.566,53.612,45.468,54.283,44.64,54.283z"/>
		<path id="path-3_5_" d="M9.238,39.656c-3.55,0-7.755-0.773-8.904-2.944C0.032,36.145,0,35.657,0,35.473
			c0-0.235,0.056-0.468,0.162-0.678l8.461-16.69c0.256-0.505,0.773-0.822,1.338-0.822h43.15c0.561,0,1.075,0.312,1.332,0.81
			l8.742,16.459c0.11,0.213,0.381,0.45,0.381,0.69v0.687c0,3.404-7.066,3.668-9.167,3.668c-1.489,0-5.475-0.134-7.607-1.443
			c-2.115,1.31-6.066,1.445-7.558,1.445c-1.483,0-5.368-0.135-7.492-1.441c-2.115,1.312-6.028,1.447-7.52,1.447
			c-1.476,0-5.316-0.134-7.446-1.422C14.668,39.519,10.736,39.656,9.238,39.656z M3.18,35.477c0.625,0.429,2.57,1.179,6.058,1.179
			c3.299,0,5.377-0.616,5.941-1.01c0.252-1.865,2.811-1.906,3.088-0.065c0.557,0.398,2.637,1.024,5.942,1.024
			c3.298,0,5.375-0.602,5.941-0.989c0.257-1.852,2.816-1.893,3.088-0.046c0.557,0.399,2.638,1.029,5.943,1.029
			c3.298,0,5.375-0.601,5.941-0.987c0.257-1.85,2.811-1.891,3.087-0.048c0.562,0.402,2.87,1.033,6.19,1.033
			c3.273,0,5.167-0.587,6.167-0.975v-0.014l-8.367-15.325H10.882L3.18,35.477z"/>
		<path id="path-4_3_" d="M44.566,18.783c0,0.829-0.671,1.5-1.5,1.5h-12c-0.828,0-1.5-0.671-1.5-1.5v-8c0-0.829,0.672-1.5,1.5-1.5
			h12c0.829,0,1.5,0.671,1.5,1.5V18.783z M32.566,17.283h9v-5h-9V17.283z"/>
		<path id="path-5_3_" d="M47.566,10.783c0,0.829-0.671,1.5-1.5,1.5h-19c-0.828,0-1.5-0.671-1.5-1.5v-6c0-0.829,0.672-1.5,1.5-1.5
			h19c0.829,0,1.5,0.671,1.5,1.5V10.783z M28.566,9.283h16v-3h-16V9.283z"/>
	</g>
</g>
<g>
</g>
<g>
</g>
<g>
</g>
<g>
</g>
<g>
</g>
<g>
</g>
<g>
</g>
<g>
</g>
<g>
</g>
<g>
</g>
<g>
</g>
<g>
</g>
<g>
</g>
<g>
</g>
<g>
</g>
</svg>
