<?xml version="1.0" encoding="iso-8859-1"?>
<!-- Generator: Adobe Illustrator 19.1.0, SVG Export Plug-In . SVG Version: 6.00 Build 0)  -->
<svg version="1.1" id="Capa_1" xmlns="http://www.w3.org/2000/svg" xmlns:xlink="http://www.w3.org/1999/xlink" x="0px" y="0px"
	 viewBox="0 0 63 63" style="enable-background:new 0 0 63 63;" xml:space="preserve">
<g>
	<g id="group-16svg">
		<path id="path-1_6_" d="M63,42.5c0,5.247-4.253,9.5-9.5,9.5h-44C4.253,52,0,47.747,0,42.5v-22C0,15.253,4.253,11,9.5,11h44
			c5.247,0,9.5,4.253,9.5,9.5V42.5z M60,20.5c0-3.59-2.91-6.5-6.5-6.5h-44C5.91,14,3,16.91,3,20.5v22C3,46.09,5.91,49,9.5,49h44
			c3.59,0,6.5-2.91,6.5-6.5V20.5z"/>
		<path id="path-2_6_" d="M59.357,27.72C59.356,27.72,59.356,27.72,59.357,27.72c-10.107,0-13.046-9.586-13.187-14.654
			c-0.012-0.401,0.139-0.791,0.417-1.081c0.277-0.289,0.66-0.455,1.061-0.461l5.641-0.072c5.237,0,9.711,4.262,9.711,9.5v5.173
			c0,0.767-0.791,1.409-1.553,1.492C60.807,27.685,59.963,27.72,59.357,27.72z M49.318,14.502C49.786,17.687,51.9,24.72,59.57,24.72
			c0.023-0.011-0.57,0,0.43-0.001v-3.767c0-3.584-3.128-6.5-6.711-6.5L49.318,14.502z"/>
		<path id="path-3_6_" d="M9.285,51.844c-5.238,0-9.285-4.261-9.285-9.5v-5.173c0-0.766,0.364-1.409,1.126-1.491
			c0.64-0.069,1.165-0.104,1.77-0.104c10.107,0,12.992,9.586,13.134,14.654c0.011,0.402-0.165,0.791-0.444,1.081
			c-0.277,0.29-0.566,0.456-0.968,0.461L9.285,51.844z M3,38.578v3.766c0,3.584,2.702,6.5,6.285,6.5l3.65-0.05
			c-0.468-3.185-2.209-10.218-9.878-10.218C2.985,38.576,3,38.577,3,38.578z"/>
		<path id="path-4_4_" d="M33.805,40h-7.232c-0.828,0-1.5-0.671-1.5-1.5s0.672-1.5,1.5-1.5h7.232c0.975,0,1.768-0.746,1.768-1.662
			c0-1.3-1.588-1.338-1.768-1.338h-3.713C27.301,34,26,31.354,26,28.902v-0.635C26,25.715,27.389,24,30.092,24h6.481
			c0.828,0,1.5,0.671,1.5,1.5s-0.672,1.5-1.5,1.5h-6.481C28.573,27,29,27.921,29,28.267v0.635C29,29.893,29.223,31,30.092,31h3.713
			c2.762,0,4.768,1.822,4.768,4.332C38.573,37.909,36.434,40,33.805,40z"/>
		<path id="path-5_4_" d="M32.5,43.5c-0.828,0-1.5-0.671-1.5-1.5V21c0-0.829,0.672-1.5,1.5-1.5S34,20.171,34,21v21
			C34,42.829,33.328,43.5,32.5,43.5z"/>
	</g>
</g>
<g>
</g>
<g>
</g>
<g>
</g>
<g>
</g>
<g>
</g>
<g>
</g>
<g>
</g>
<g>
</g>
<g>
</g>
<g>
</g>
<g>
</g>
<g>
</g>
<g>
</g>
<g>
</g>
<g>
</g>
</svg>
