<?xml version="1.0" encoding="iso-8859-1"?>
<!-- Generator: Adobe Illustrator 19.1.0, SVG Export Plug-In . SVG Version: 6.00 Build 0)  -->
<svg version="1.1" id="Capa_1" xmlns="http://www.w3.org/2000/svg" xmlns:xlink="http://www.w3.org/1999/xlink" x="0px" y="0px"
	 viewBox="0 0 63 63" style="enable-background:new 0 0 63 63;" xml:space="preserve">
<g>
	<g id="group-17svg">
		<path id="path-1_7_" d="M63,42.5c0,5.247-4.253,9.5-9.5,9.5h-44C4.253,52,0,47.747,0,42.5v-22C0,15.253,4.253,11,9.5,11h44
			c5.247,0,9.5,4.253,9.5,9.5V42.5z M60,20.5c0-3.59-2.91-6.5-6.5-6.5h-44C5.91,14,3,16.91,3,20.5v22C3,46.09,5.91,49,9.5,49h44
			c3.59,0,6.5-2.91,6.5-6.5V20.5z"/>
		<path id="path-2_7_" d="M59.356,27.72C59.355,27.72,59.355,27.72,59.356,27.72c-10.106,0-13.126-9.577-13.31-14.641
			c-0.015-0.404,0.134-0.796,0.412-1.089c0.278-0.293,0.663-0.461,1.067-0.466l5.701-0.072c5.272,0,9.774,4.262,9.774,9.5v5.173
			c0,0.767-0.791,1.409-1.553,1.492C60.807,27.685,59.962,27.72,59.356,27.72z M49.209,14.642C49.708,17.836,51.677,25,59.355,25
			c0,0,0.213,0,0.214,0C59.641,25,59,24.72,60,24.719v-3.767c0-3.584-3.156-6.43-6.774-6.43L49.209,14.642z"/>
		<path id="path-3_7_" d="M9.223,51.844C4.02,51.844,0,47.583,0,42.344v-5.173c0-0.766,0.363-1.409,1.127-1.491
			c0.639-0.069,1.163-0.104,1.768-0.104c10.109,0,12.914,9.594,13.012,14.667c0.008,0.4-0.172,0.786-0.449,1.072
			c-0.277,0.288-0.564,0.452-0.964,0.457L9.223,51.844z M3,38.578v3.766c0,3.584,2.674,6.5,6.223,6.5l3.816-0.05
			C12.599,45.588,10,38.459,3,38.578z"/>
		<path id="path-4_5_" d="M32.642,41.568c-5.429,0-9.845-4.416-9.845-9.843c0-5.429,4.416-9.844,9.845-9.844
			c1.502,0,2.944,0.33,4.288,0.981c0.745,0.362,1.056,1.259,0.695,2.004c-0.361,0.746-1.259,1.056-2.004,0.696
			c-0.932-0.452-1.935-0.681-2.979-0.681c-3.775,0-6.845,3.07-6.845,6.844c0,3.773,3.07,6.843,6.845,6.843
			c1.005,0,1.974-0.213,2.877-0.632c0.75-0.348,1.644-0.023,1.993,0.729c0.348,0.751,0.022,1.643-0.729,1.992
			C35.48,41.262,34.087,41.568,32.642,41.568z"/>
		<path id="path-5_5_" d="M36.573,31h-16c-0.828,0-1.5-0.671-1.5-1.5s0.672-1.5,1.5-1.5h16c0.828,0,1.5,0.671,1.5,1.5
			S37.401,31,36.573,31z"/>
		<path id="path-6_2_" d="M36.573,36h-16c-0.828,0-1.5-0.671-1.5-1.5s0.672-1.5,1.5-1.5h16c0.828,0,1.5,0.671,1.5,1.5
			S37.401,36,36.573,36z"/>
	</g>
</g>
<g>
</g>
<g>
</g>
<g>
</g>
<g>
</g>
<g>
</g>
<g>
</g>
<g>
</g>
<g>
</g>
<g>
</g>
<g>
</g>
<g>
</g>
<g>
</g>
<g>
</g>
<g>
</g>
<g>
</g>
</svg>
