<?xml version="1.0" encoding="iso-8859-1"?>
<!-- Generator: Adobe Illustrator 19.1.0, SVG Export Plug-In . SVG Version: 6.00 Build 0)  -->
<svg version="1.1" id="Capa_1" xmlns="http://www.w3.org/2000/svg" xmlns:xlink="http://www.w3.org/1999/xlink" x="0px" y="0px"
	 viewBox="0 0 63 63" style="enable-background:new 0 0 63 63;" xml:space="preserve">
<g>
	<g id="group-18svg">
		<path id="path-1_8_" d="M63,42.5c0,5.247-4.253,9.5-9.5,9.5h-44C4.253,52,0,47.747,0,42.5v-22C0,15.253,4.253,11,9.5,11h44
			c5.247,0,9.5,4.253,9.5,9.5V42.5z M60,20.5c0-3.59-2.91-6.5-6.5-6.5h-44C5.91,14,3,16.91,3,20.5v22C3,46.09,5.91,49,9.5,49h44
			c3.59,0,6.5-2.91,6.5-6.5V20.5z"/>
		<path id="path-2_8_" d="M59.358,27.72h-0.001c-10.109,0-12.91-9.6-12.978-14.676c-0.011-0.828,0.651-1.508,1.479-1.52l5.535-0.072
			c5.179,0,9.607,4.262,9.607,9.5v5.173c0,0.767-0.791,1.409-1.553,1.492C60.807,27.685,59.963,27.72,59.358,27.72z M49.504,14.642
			C49.919,17.812,51.702,25,59.357,25h0.215C59.643,25,59,24.72,60,24.719v-3.767c0-3.644-3.022-6.43-6.607-6.43L49.504,14.642z"/>
		<path id="path-3_8_" d="M9.389,51.844c-5.295,0-9.389-4.261-9.389-9.5v-5.173c0-0.766,0.363-1.409,1.127-1.491
			c0.639-0.069,1.164-0.104,1.77-0.104c10.105,0,13.128,9.571,13.343,14.632c0.017,0.406-0.158,0.801-0.436,1.095
			c-0.279,0.295-0.572,0.464-0.977,0.469L9.389,51.844z M3,38.578v3.766c0,3.584,2.748,6.5,6.389,6.5l3.944-0.05
			C12.809,45.564,10,38.438,3,38.578z"/>
		<path id="path-4_6_" d="M39.573,42h-11.5C27.245,42,27,41.329,27,40.5v-0.997c0-0.659,0.217-1.24,0.846-1.434
			c2.127-0.653,2.408-1.627,2.408-3.311c0-0.332-0.014-0.642,0.029-0.952c0.046-0.327,0.043-0.521,0.013-0.718
			c-0.006-0.04-0.024-0.081-0.027-0.122l-0.123-1.64c-0.161-0.978-0.251-2.078-0.251-3.105c0-3.932,2.831-6.785,6.735-6.785
			c1.408,0,2.413,0.117,3.387,0.719c0.704,0.436,0.921,1.361,0.485,2.065c-0.436,0.705-1.36,0.922-2.065,0.487
			c-0.231-0.144-0.544-0.272-1.809-0.272c-2.271,0-3.737,1.486-3.737,3.786c0,0.878,0.08,1.855,0.218,2.68
			c0.008,0.047,0.014,0.095,0.017,0.142l0.118,1.654c0.085,0.613,0.014,1.117-0.043,1.525c-0.024,0.175-0.054,0.349-0.054,0.536
			c0,1.289-0.191,2.905-1.378,4.242h7.804c0.828,0,1.5,0.671,1.5,1.5S40.401,42,39.573,42z"/>
		<path id="path-5_6_" d="M39.573,34h-12c-0.828,0-1.5-0.671-1.5-1.5c0-0.829,0.672-1.5,1.5-1.5h12c0.828,0,1.5,0.671,1.5,1.5
			C41.073,33.329,40.401,34,39.573,34z"/>
	</g>
</g>
<g>
</g>
<g>
</g>
<g>
</g>
<g>
</g>
<g>
</g>
<g>
</g>
<g>
</g>
<g>
</g>
<g>
</g>
<g>
</g>
<g>
</g>
<g>
</g>
<g>
</g>
<g>
</g>
<g>
</g>
</svg>
