<?xml version="1.0" encoding="iso-8859-1"?>
<!-- Generator: Adobe Illustrator 19.1.0, SVG Export Plug-In . SVG Version: 6.00 Build 0)  -->
<svg version="1.1" id="Capa_1" xmlns="http://www.w3.org/2000/svg" xmlns:xlink="http://www.w3.org/1999/xlink" x="0px" y="0px"
	 viewBox="0 0 63 63" style="enable-background:new 0 0 63 63;" xml:space="preserve">
<g>
	<g id="group-19svg">
		<path id="path-1_9_" d="M31.5,46.928C14.131,46.928,0,37.444,0,25.786C0,14.127,14.131,4.643,31.5,4.643S63,14.127,63,25.786
			C63,37.444,48.869,46.928,31.5,46.928z M31.5,7.643C15.785,7.643,3,15.782,3,25.786c0,10.003,12.785,18.142,28.5,18.142
			S60,35.789,60,25.786C60,15.782,47.215,7.643,31.5,7.643z"/>
		<path id="path-2_9_" d="M31.5,58.357C13.837,58.357,0,51.574,0,42.914c0-0.828,0.672-1.5,1.5-1.5s1.5,0.672,1.5,1.5
			c0,6.745,13.052,12.443,28.5,12.443S60,49.659,60,42.914c0-0.828,0.672-1.5,1.5-1.5c0.828,0,1.5,0.672,1.5,1.5
			C63,51.574,49.163,58.357,31.5,58.357z"/>
		<path id="path-3_9_" d="M33.357,36.269h-7.4c-0.828,0-1.5-0.671-1.5-1.5c0-0.829,0.672-1.5,1.5-1.5h7.4
			c0.901,0,1.6-1.129,1.6-2.101c0-0.92-0.643-1.899-1.6-1.899h-3.713c-2.628,0-4.26-1.993-4.26-4.537v-0.635
			c0-2.662,1.676-4.828,4.26-4.828h7.313c0.828,0,1.5,0.671,1.5,1.5s-0.672,1.5-1.5,1.5h-7.313c-0.914,0-1.26,0.837-1.26,1.828
			v0.635c0,0.905,0.267,1.537,1.26,1.537h3.713c2.537,0,4.6,2.195,4.6,4.893C37.957,33.631,36.109,36.269,33.357,36.269z"/>
		<path id="path-4_7_" d="M31.884,39.769c-0.828,0-1.5-0.671-1.5-1.5v-21c0-0.829,0.672-1.5,1.5-1.5c0.828,0,1.5,0.671,1.5,1.5v21
			C33.384,39.098,32.712,39.769,31.884,39.769z"/>
	</g>
</g>
<g>
</g>
<g>
</g>
<g>
</g>
<g>
</g>
<g>
</g>
<g>
</g>
<g>
</g>
<g>
</g>
<g>
</g>
<g>
</g>
<g>
</g>
<g>
</g>
<g>
</g>
<g>
</g>
<g>
</g>
</svg>
