<?xml version="1.0" encoding="iso-8859-1"?>
<!-- Generator: Adobe Illustrator 19.1.0, SVG Export Plug-In . SVG Version: 6.00 Build 0)  -->
<svg version="1.1" id="Capa_1" xmlns="http://www.w3.org/2000/svg" xmlns:xlink="http://www.w3.org/1999/xlink" x="0px" y="0px"
	 viewBox="0 0 63 63" style="enable-background:new 0 0 63 63;" xml:space="preserve">
<g>
	<g id="group-20svg">
		<path id="path-1_11_" d="M31.5,46.928C14.131,46.928,0,37.444,0,25.786C0,14.127,14.131,4.643,31.5,4.643S63,14.127,63,25.786
			C63,37.444,48.869,46.928,31.5,46.928z M31.5,7.643C15.785,7.643,3,15.782,3,25.786c0,10.003,12.785,18.142,28.5,18.142
			S60,35.789,60,25.786C60,15.782,47.215,7.643,31.5,7.643z"/>
		<path id="path-2_11_" d="M31.5,58.357C13.837,58.357,0,51.574,0,42.914c0-0.828,0.672-1.5,1.5-1.5s1.5,0.672,1.5,1.5
			c0,6.745,13.052,12.443,28.5,12.443S60,49.659,60,42.914c0-0.828,0.672-1.5,1.5-1.5s1.5,0.672,1.5,1.5
			C63,51.574,49.163,58.357,31.5,58.357z"/>
		<path id="path-3_11_" d="M33.694,36.794c-6.304,0-11.433-5.129-11.433-11.433s5.129-11.433,11.433-11.433
			c1.745,0,3.422,0.383,4.982,1.14c0.745,0.361,1.056,1.259,0.695,2.004c-0.361,0.746-1.259,1.056-2.004,0.696
			c-1.148-0.557-2.385-0.84-3.673-0.84c-4.649,0-8.432,3.783-8.432,8.433c0,4.651,3.783,8.433,8.432,8.433
			c1.24,0,2.434-0.262,3.547-0.779c0.748-0.348,1.643-0.023,1.992,0.729c0.349,0.751,0.024,1.643-0.728,1.992
			C36.993,36.438,35.374,36.794,33.694,36.794z"/>
		<path id="path-4_9_" d="M38.128,22.269h-18c-0.553,0-1-0.448-1-1s0.447-1,1-1h18c0.552,0,1,0.448,1,1S38.68,22.269,38.128,22.269z
			"/>
		<path id="path-5_8_" d="M38.128,28.269h-18c-0.553,0-1-0.448-1-1s0.447-1,1-1h18c0.552,0,1,0.448,1,1S38.68,28.269,38.128,28.269z
			"/>
	</g>
</g>
<g>
</g>
<g>
</g>
<g>
</g>
<g>
</g>
<g>
</g>
<g>
</g>
<g>
</g>
<g>
</g>
<g>
</g>
<g>
</g>
<g>
</g>
<g>
</g>
<g>
</g>
<g>
</g>
<g>
</g>
</svg>
