<?xml version="1.0" encoding="iso-8859-1"?>
<!-- Generator: Adobe Illustrator 19.1.0, SVG Export Plug-In . SVG Version: 6.00 Build 0)  -->
<svg version="1.1" id="Capa_1" xmlns="http://www.w3.org/2000/svg" xmlns:xlink="http://www.w3.org/1999/xlink" x="0px" y="0px"
	 viewBox="0 0 63 63" style="enable-background:new 0 0 63 63;" xml:space="preserve">
<g>
	<g id="group-21svg">
		<path id="path-1_12_" d="M31.5,46.928C14.131,46.928,0,37.444,0,25.786C0,14.127,14.131,4.643,31.5,4.643S63,14.127,63,25.786
			C63,37.444,48.869,46.928,31.5,46.928z M31.5,7.643C15.785,7.643,3,15.782,3,25.786c0,10.003,12.785,18.142,28.5,18.142
			S60,35.789,60,25.786C60,15.782,47.215,7.643,31.5,7.643z"/>
		<path id="path-2_12_" d="M31.5,58.357C13.837,58.357,0,51.574,0,42.914c0-0.828,0.672-1.5,1.5-1.5s1.5,0.672,1.5,1.5
			c0,6.745,13.051,12.443,28.5,12.443c15.448,0,28.5-5.698,28.5-12.443c0-0.828,0.672-1.5,1.5-1.5s1.5,0.672,1.5,1.5
			C63,51.574,49.163,58.357,31.5,58.357z"/>
		<path id="path-3_12_" d="M37.128,38.269h-13.5c-0.828,0-1.074-0.671-1.074-1.5v-2.147c0-0.548,0.403-1.052,0.883-1.315
			c1.5-0.823,3.117-2.483,3.117-4.334V28.66c0-0.62-0.312-1.109-0.407-1.719l-0.425-2.072c-0.162-0.954-0.435-2.29-0.435-3.678
			c0-4.516,3.202-7.793,7.667-7.793c2.143,0,3.537,0.875,4.216,1.295c0.705,0.436,0.913,1.36,0.476,2.065
			c-0.435,0.704-1.365,0.922-2.069,0.486c-0.545-0.337-1.37-0.846-2.661-0.846c-2.858,0-4.707,1.882-4.707,4.793
			c0,1.166,0.172,2.344,0.322,3.238l0.586,2.091c0.126,0.806,0.437,1.491,0.437,2.152v0.301c0,2.755-2.363,4.97-4.164,6.296h11.738
			c0.828,0,1.5,0.671,1.5,1.5S37.956,38.269,37.128,38.269z"/>
		<path id="path-4_10_" d="M37.128,28.269h-15c-0.828,0-1.5-0.671-1.5-1.5s0.672-1.5,1.5-1.5h15c0.828,0,1.5,0.671,1.5,1.5
			S37.956,28.269,37.128,28.269z"/>
	</g>
</g>
<g>
</g>
<g>
</g>
<g>
</g>
<g>
</g>
<g>
</g>
<g>
</g>
<g>
</g>
<g>
</g>
<g>
</g>
<g>
</g>
<g>
</g>
<g>
</g>
<g>
</g>
<g>
</g>
<g>
</g>
</svg>
