<?xml version="1.0" encoding="iso-8859-1"?>
<!-- Generator: Adobe Illustrator 19.1.0, SVG Export Plug-In . SVG Version: 6.00 Build 0)  -->
<svg version="1.1" id="Capa_1" xmlns="http://www.w3.org/2000/svg" xmlns:xlink="http://www.w3.org/1999/xlink" x="0px" y="0px"
	 viewBox="0 0 63.427 63.427" style="enable-background:new 0 0 63.427 63.427;" xml:space="preserve">
<g>
	<g id="group-22svg">
		<path id="path-1_13_" d="M63.427,51.213c0,5.247-4.253,9.5-9.5,9.5h-44c-5.246,0-9.5-4.253-9.5-9.5v-27c0-5.247,4.254-9.5,9.5-9.5
			h44c5.247,0,9.5,4.253,9.5,9.5V51.213z M60.427,24.213c0-3.59-2.91-6.5-6.5-6.5h-44c-3.59,0-6.5,2.91-6.5,6.5v27
			c0,3.59,2.91,6.5,6.5,6.5h44c3.59,0,6.5-2.91,6.5-6.5V24.213z"/>
		<path id="path-2_13_" d="M61.498,25.355c-0.75,0-1.399-0.563-1.488-1.327l-1.222-10.512c-0.316-4.405-3.926-7.803-8.226-7.803
			H12.72c-4.3,0-7.91,3.398-8.22,7.736c-0.003,0.036-0.006,0.072-0.011,0.108L2.985,23.95c-0.118,0.82-0.876,1.387-1.699,1.27
			c-0.821-0.119-1.389-0.88-1.27-1.699L1.512,13.18C1.96,7.306,6.873,2.713,12.72,2.713h37.842c5.866,0,10.791,4.622,11.212,10.522
			l1.217,10.446c0.095,0.823-0.494,1.568-1.318,1.664C61.615,25.351,61.556,25.355,61.498,25.355z"/>
		<path id="path-3_13_" d="M35.569,39.713h-8c-2.614,0-4.142-2.628-4.142-4.978V16.611c0-0.072-0.208-0.143-0.198-0.214
			l1.535-11.398c0.105-0.738,0.631-1.286,1.377-1.286h11.177c0.768,0,1.413,0.581,1.492,1.345l1.396,11.398
			c0.005,0.052,0.221,0.103,0.221,0.155v18.124C40.427,37.089,38.18,39.713,35.569,39.713z M26.427,16.718v18.017
			c0,0.906,0.424,1.978,1.142,1.978h8c0.695,0,1.858-1.017,1.858-1.978V16.689l-1.462-9.976h-8.524L26.427,16.718z"/>
	</g>
</g>
<g>
</g>
<g>
</g>
<g>
</g>
<g>
</g>
<g>
</g>
<g>
</g>
<g>
</g>
<g>
</g>
<g>
</g>
<g>
</g>
<g>
</g>
<g>
</g>
<g>
</g>
<g>
</g>
<g>
</g>
</svg>
