<?xml version="1.0" encoding="iso-8859-1"?>
<!-- Generator: Adobe Illustrator 19.1.0, SVG Export Plug-In . SVG Version: 6.00 Build 0)  -->
<svg version="1.1" id="Capa_1" xmlns="http://www.w3.org/2000/svg" xmlns:xlink="http://www.w3.org/1999/xlink" x="0px" y="0px"
	 viewBox="0 0 62.737 62.737" style="enable-background:new 0 0 62.737 62.737;" xml:space="preserve">
<g>
	<g id="group-24svg">
		<path id="path-1_15_" d="M50.739,62.737H6.678c-3.163,0-5.309-2.341-5.309-5.218v-2c0-3.026,2.307-5.782,5.309-5.782h14.691V9.141
			c0-3.49,2.425-5.745,6.177-5.745c3.646,0,5.823,2.148,5.823,5.745v10.371c0-0.489,1.342-0.775,2.309-0.775h1
			c2.903,0,5.691,2.594,5.691,5.782v1.993c0-0.489,1.342-0.775,2.309-0.775h2c2.604,0,4.772,2.087,5.191,4.819
			c0.847-0.516,1.813-0.819,2.809-0.819h1c2.903,0,5.691,2.594,5.691,5.782v16.302C61.369,58.146,56.651,62.737,50.739,62.737z
			 M6.678,52.737c-1.381,0-2.309,1.378-2.309,2.782v2c0,1.37,0.993,2.218,2.309,2.218h44.061c4.309,0,7.63-3.181,7.63-7.916V35.519
			c0-1.344-1.337-2.782-2.691-2.782h-1c-1.355,0-2.736,1.404-2.736,2.782c0,0.828-0.458,1.5-1.286,1.5
			c-0.829,0-1.287-0.672-1.287-1.5v-4c0-1.338-1.293-2.782-2.691-2.782h-2c-1.355,0-2.736,1.404-2.736,2.782
			c0,0.828-0.458,1.5-1.286,1.5c-0.829,0-1.287-0.672-1.287-1.5v-7c0-1.338-1.293-2.782-2.691-2.782h-1
			c-1.355,0-2.736,1.404-2.736,2.782c0,0.828-0.458,1.5-1.286,1.5c-0.829,0-1.287-0.672-1.287-1.5V9.141
			c0-1.949-0.818-2.745-2.823-2.745c-2.109,0-3.177,0.924-3.177,2.745v42.096c0,0.829-1.099,1.5-1.927,1.5H6.678z"/>
		<path id="path-2_15_" d="M35.423,7.528c-0.55,0-1.08-0.303-1.343-0.829c-0.37-0.741-0.07-1.642,0.671-2.012l9.056-4.529
			c0.744-0.37,1.643-0.07,2.013,0.671c0.37,0.74,0.07,1.641-0.671,2.012L36.093,7.37C35.877,7.477,35.648,7.528,35.423,7.528z"/>
		<path id="path-3_15_" d="M44.942,10.737h-9c-0.828,0-1.5-0.671-1.5-1.5s0.672-1.5,1.5-1.5h9c0.828,0,1.5,0.671,1.5,1.5
			S45.77,10.737,44.942,10.737z"/>
		<path id="path-4_11_" d="M18.576,7.528c-0.226,0-0.454-0.051-0.67-0.158L8.849,2.841C8.108,2.47,7.808,1.569,8.179,0.829
			c0.37-0.741,1.271-1.041,2.012-0.671l9.057,4.529c0.741,0.37,1.041,1.271,0.671,2.012C19.656,7.225,19.126,7.528,18.576,7.528z"/>
		<path id="path-5_9_" d="M18.942,10.737h-10c-0.828,0-1.5-0.671-1.5-1.5s0.672-1.5,1.5-1.5h10c0.828,0,1.5,0.671,1.5,1.5
			S19.77,10.737,18.942,10.737z"/>
	</g>
</g>
<g>
</g>
<g>
</g>
<g>
</g>
<g>
</g>
<g>
</g>
<g>
</g>
<g>
</g>
<g>
</g>
<g>
</g>
<g>
</g>
<g>
</g>
<g>
</g>
<g>
</g>
<g>
</g>
<g>
</g>
</svg>
