<?xml version="1.0" encoding="iso-8859-1"?>
<!-- Generator: Adobe Illustrator 19.1.0, SVG Export Plug-In . SVG Version: 6.00 Build 0)  -->
<svg version="1.1" id="Capa_1" xmlns="http://www.w3.org/2000/svg" xmlns:xlink="http://www.w3.org/1999/xlink" x="0px" y="0px"
	 viewBox="0 0 62.545 62.545" style="enable-background:new 0 0 62.545 62.545;" xml:space="preserve">
<g>
	<g id="group-25svg">
		<path id="path-1_16_" d="M16.288,47.561C7.307,47.561,0,40.255,0,31.272c0-8.981,7.307-16.288,16.288-16.288
			c8.982,0,16.288,7.307,16.288,16.288C32.576,40.255,25.27,47.561,16.288,47.561z M16.288,17.985C8.961,17.985,3,23.947,3,31.272
			c0,7.327,5.961,13.288,13.288,13.288s13.288-5.961,13.288-13.288C29.576,23.947,23.615,17.985,16.288,17.985z"/>
		<path id="path-2_16_" d="M61.045,32h-29c-0.828,0-1.5-0.671-1.5-1.5c0-0.828,0.672-1.5,1.5-1.5h29c0.828,0,1.5,0.672,1.5,1.5
			C62.545,31.33,61.873,32,61.045,32z"/>
		<path id="path-3_16_" d="M59.972,39.5c-0.828,0-1.5-0.671-1.5-1.5v-7c0-0.828,0.672-1.5,1.5-1.5c0.828,0,1.5,0.672,1.5,1.5v7
			C61.472,38.83,60.8,39.5,59.972,39.5z"/>
	</g>
</g>
<g>
</g>
<g>
</g>
<g>
</g>
<g>
</g>
<g>
</g>
<g>
</g>
<g>
</g>
<g>
</g>
<g>
</g>
<g>
</g>
<g>
</g>
<g>
</g>
<g>
</g>
<g>
</g>
<g>
</g>
</svg>
