<?xml version="1.0" encoding="iso-8859-1"?>
<!-- Generator: Adobe Illustrator 19.1.0, SVG Export Plug-In . SVG Version: 6.00 Build 0)  -->
<svg version="1.1" id="Capa_1" xmlns="http://www.w3.org/2000/svg" xmlns:xlink="http://www.w3.org/1999/xlink" x="0px" y="0px"
	 viewBox="0 0 63.003 63.003" style="enable-background:new 0 0 63.003 63.003;" xml:space="preserve">
<g>
	<g id="group-28svg">
		<path id="path-1_19_" d="M43.867,61.502h-24.73c-5.448,0-10.184-3.445-11.786-8.571L0.573,31.387
			c-1.176-3.76-0.522-7.719,1.792-10.867c2.344-3.189,5.986-5.018,9.992-5.018h38.289c3.994,0,7.632,1.831,9.978,5.023
			c2.327,3.163,2.985,7.138,1.808,10.906l-6.781,21.554C54.059,58.078,49.324,61.502,43.867,61.502z M12.357,18.502
			c-3.041,0-5.802,1.383-7.575,3.795c-1.743,2.37-2.234,5.356-1.347,8.192l6.778,21.544c1.21,3.87,4.795,6.469,8.924,6.469h24.73
			c4.137,0,7.722-2.578,8.922-6.415l6.781-21.554c0.888-2.844,0.392-5.845-1.363-8.231c-1.775-2.415-4.531-3.8-7.561-3.8H12.357z"/>
		<path id="path-2_19_" d="M47.009,18.002c-0.828,0-1.5-0.671-1.5-1.5v-5.5c0-3.584-3.343-6.5-6.927-6.5h-15
			c-3.584,0-6.073,2.916-6.073,6.5v5.5c0,0.829-0.672,1.5-1.5,1.5s-1.5-0.671-1.5-1.5v-5.5c0-5.238,3.835-9.5,9.073-9.5h15
			c5.239,0,9.927,4.262,9.927,9.5v5.5C48.509,17.331,47.837,18.002,47.009,18.002z"/>
		<path id="path-3_19_" d="M32.522,36.502c0.492,0,0.914-0.045,1.269-0.333c0.355-0.288,0.532-0.652,0.532-1.19
			c0-0.412-0.141-0.739-0.424-1.036c-0.282-0.295-0.664-0.431-1.145-0.431c-0.325,0-0.593,0.051-0.803,0.141
			c-0.212,0.091-0.377,0.213-0.501,0.364c-0.122,0.149-0.24,0.342-0.348,0.578c-0.109,0.233-0.209,0.456-0.301,0.664
			c-0.053,0.112-0.148,0.201-0.288,0.265c-0.138,0.064-0.298,0.097-0.48,0.097c-0.212,0-0.41-0.087-0.587-0.261
			c-0.18-0.173-0.269-0.404-0.269-0.693c0-0.276,0.084-0.569,0.252-0.875c0.168-0.307,0.413-0.6,0.736-0.876
			c0.324-0.279,0.724-0.501,1.205-0.668c0.48-0.169,1.016-0.254,1.608-0.254c0.519,0,0.99,0.071,1.417,0.213
			c0.428,0.142,0.798,0.345,1.112,0.613c0.316,0.265,0.553,0.576,0.713,0.928c0.159,0.352,0.239,0.73,0.239,1.137
			c0,0.533-0.115,0.99-0.346,1.371c-0.233,0.383-0.566,0.755-0.997,1.117c0.416,0.224,0.766,0.48,1.052,0.768
			c0.285,0.288,0.499,0.608,0.644,0.958c0.144,0.347,0.216,0.725,0.216,1.132c0,0.484-0.097,0.954-0.291,1.408
			c-0.196,0.453-0.482,0.858-0.862,1.213c-0.377,0.354-0.827,0.633-1.347,0.832c-0.521,0.201-1.096,0.299-1.726,0.299
			c-0.64,0-1.213-0.114-1.72-0.343c-0.507-0.231-0.924-0.516-1.252-0.86c-0.329-0.345-0.577-0.701-0.745-1.07
			c-0.168-0.368-0.253-0.672-0.253-0.912c0-0.309,0.101-0.558,0.301-0.748c0.2-0.19,0.449-0.283,0.748-0.283
			c0.15,0,0.294,0.043,0.432,0.132c0.14,0.087,0.23,0.192,0.272,0.316c0.279,0.741,0.576,1.292,0.893,1.653
			c0.317,0.359,0.764,0.54,1.34,0.54c0.332,0,0.65-0.083,0.957-0.245c0.306-0.162,0.56-0.405,0.761-0.725
			c0.2-0.32,0.299-0.69,0.299-1.111c0-0.624-0.171-1.114-0.512-1.468c-0.341-0.357-0.817-0.533-1.425-0.533
			c-0.106,0-0.272,0.009-0.496,0.032c-0.224,0.02-0.368,0.032-0.432,0.032c-0.293,0-0.52-0.073-0.681-0.22
			c-0.16-0.148-0.24-0.352-0.24-0.612c0-0.256,0.097-0.564,0.288-0.719c0.193-0.158,0.479-0.337,0.857-0.337H32.522z"/>
	</g>
</g>
<g>
</g>
<g>
</g>
<g>
</g>
<g>
</g>
<g>
</g>
<g>
</g>
<g>
</g>
<g>
</g>
<g>
</g>
<g>
</g>
<g>
</g>
<g>
</g>
<g>
</g>
<g>
</g>
<g>
</g>
</svg>
