<?xml version="1.0" encoding="iso-8859-1"?>
<!-- Generator: Adobe Illustrator 19.1.0, SVG Export Plug-In . SVG Version: 6.00 Build 0)  -->
<svg version="1.1" id="Capa_1" xmlns="http://www.w3.org/2000/svg" xmlns:xlink="http://www.w3.org/1999/xlink" x="0px" y="0px"
	 viewBox="0 0 63.003 63.003" style="enable-background:new 0 0 63.003 63.003;" xml:space="preserve">
<g>
	<g id="group-30svg">
		<path id="path-1_22_" d="M43.867,61.502h-24.73c-5.446,0-10.183-3.445-11.786-8.571L0.573,31.387
			c-1.176-3.76-0.522-7.719,1.792-10.867c2.345-3.189,5.986-5.018,9.992-5.018h38.289c3.994,0,7.632,1.831,9.979,5.023
			c2.326,3.163,2.984,7.138,1.807,10.906l-6.781,21.554C54.059,58.078,49.324,61.502,43.867,61.502z M12.357,18.502
			c-3.041,0-5.802,1.383-7.575,3.795c-1.742,2.37-2.233,5.356-1.347,8.192l6.779,21.544c1.21,3.87,4.795,6.469,8.923,6.469h24.73
			c4.138,0,7.723-2.578,8.922-6.415l6.781-21.554c0.889-2.844,0.393-5.845-1.362-8.231c-1.776-2.415-4.532-3.8-7.562-3.8H12.357z"/>
		<path id="path-2_22_" d="M47.052,18.002c-0.828,0-1.5-0.671-1.5-1.5v-5.5c0-3.584-3.342-6.5-6.926-6.5h-15
			c-3.584,0-6.074,2.916-6.074,6.5v5.5c0,0.829-0.671,1.5-1.5,1.5c-0.828,0-1.5-0.671-1.5-1.5v-5.5c0-5.238,3.835-9.5,9.074-9.5h15
			c5.238,0,9.926,4.262,9.926,9.5v5.5C48.552,17.331,47.881,18.002,47.052,18.002z"/>
		<path id="path-3_21_" d="M31.704,44.502c-0.015,0-0.03,0-0.045,0c-0.414,0-0.804-0.362-1.078-0.671l-3.3-3.809
			c-0.549-0.62-0.491-1.61,0.129-2.159c0.62-0.55,1.568-0.512,2.117,0.107l2.243,2.522l6.323-6.328
			c0.586-0.586,1.536-0.589,2.122-0.003c0.586,0.586,0.586,1.534,0,2.12l-7.451,7.616C32.483,44.179,32.101,44.502,31.704,44.502z"
			/>
	</g>
</g>
<g>
</g>
<g>
</g>
<g>
</g>
<g>
</g>
<g>
</g>
<g>
</g>
<g>
</g>
<g>
</g>
<g>
</g>
<g>
</g>
<g>
</g>
<g>
</g>
<g>
</g>
<g>
</g>
<g>
</g>
</svg>
