<?xml version="1.0" encoding="iso-8859-1"?>
<!-- Generator: Adobe Illustrator 19.1.0, SVG Export Plug-In . SVG Version: 6.00 Build 0)  -->
<svg version="1.1" id="Capa_1" xmlns="http://www.w3.org/2000/svg" xmlns:xlink="http://www.w3.org/1999/xlink" x="0px" y="0px"
	 viewBox="0 0 63.304 63.304" style="enable-background:new 0 0 63.304 63.304;" xml:space="preserve">
<g>
	<g id="group-3svg">
		<path id="path-1_21_" d="M51.628,40.321H15.14c-0.691,0-1.293-0.472-1.457-1.143l-4.899-20c-0.109-0.448-0.008-0.92,0.277-1.283
			c0.284-0.362,0.719-0.574,1.18-0.574H61.23c0.516,0,0.995,0.265,1.27,0.701c0.274,0.437,0.305,0.983,0.083,1.448l-9.603,20
			C52.73,39.99,52.205,40.321,51.628,40.321z M16.317,37.321h34.367l8.162-17H12.153L16.317,37.321z"/>
		<path id="path-2_21_" d="M61.378,50.321h-4.5c-0.828,0-1.5-0.671-1.5-1.5s0.672-1.5,1.5-1.5h3.426v-7H16.956l1.345,7h2.577
			c0.828,0,1.5,0.671,1.5,1.5s-0.672,1.5-1.5,1.5h-3.817c-0.719,0-1.337-0.511-1.472-1.217l-1.921-10
			c-0.085-0.44,0.031-0.894,0.316-1.238c0.285-0.345,0.709-0.545,1.156-0.545h46.238c0.828,0,1.926,0.671,1.926,1.5v10
			C63.304,49.65,62.206,50.321,61.378,50.321z"/>
		<path id="path-3_20_" d="M43.878,50.321h-10c-0.828,0-1.5-0.671-1.5-1.5s0.672-1.5,1.5-1.5h10c0.828,0,1.5,0.671,1.5,1.5
			S44.706,50.321,43.878,50.321z"/>
		<path id="path-4_13_" d="M50.38,57.622c-4.004,0-7.261-3.257-7.261-7.261S46.376,43.1,50.38,43.1s7.261,3.257,7.261,7.261
			S54.384,57.622,50.38,57.622z M50.38,46.1c-2.35,0-4.261,1.911-4.261,4.261c0,2.35,1.911,4.261,4.261,4.261
			c2.349,0,4.261-1.911,4.261-4.261C54.641,48.011,52.729,46.1,50.38,46.1z"/>
		<path id="path-5_10_" d="M27.287,57.622c-4.004,0-7.261-3.257-7.261-7.261s3.257-7.261,7.261-7.261s7.262,3.257,7.262,7.261
			S31.291,57.622,27.287,57.622z M27.287,46.1c-2.35,0-4.261,1.911-4.261,4.261c0,2.35,1.911,4.261,4.261,4.261
			s4.262-1.911,4.262-4.261C31.549,48.011,29.637,46.1,27.287,46.1z"/>
		<path id="path-6_4_" d="M17.06,49.901c-0.673,0-1.284-0.455-1.454-1.137L6.005,10.272C5.974,10.153,5.96,10.031,5.96,9.909
			c0-0.665-0.675-1.227-1.473-1.227C3.653,8.682,3,9.372,3,10.254c0,0.542,0.265,1.042,0.711,1.337
			c0.689,0.459,0.878,1.39,0.419,2.08c-0.457,0.69-1.387,0.878-2.079,0.419C0.766,13.237,0,11.803,0,10.254
			c0-2.521,2.013-4.572,4.487-4.572c2.394,0,4.354,1.786,4.468,4.022l9.561,38.334c0.202,0.803-0.288,1.617-1.091,1.818
			C17.303,49.887,17.18,49.901,17.06,49.901z"/>
		<path id="path-7_2_" d="M34.804,36.821c-0.828,0-1.5-0.671-1.5-1.5v-10c0-0.829,0.672-1.5,1.5-1.5c0.829,0,1.5,0.671,1.5,1.5v10
			C36.304,36.15,35.633,36.821,34.804,36.821z"/>
		<path id="path-8" d="M38.878,32.321h-9c-0.828,0-1.5-0.671-1.5-1.5s0.672-1.5,1.5-1.5h9c0.828,0,1.5,0.671,1.5,1.5
			S39.706,32.321,38.878,32.321z"/>
	</g>
</g>
<g>
</g>
<g>
</g>
<g>
</g>
<g>
</g>
<g>
</g>
<g>
</g>
<g>
</g>
<g>
</g>
<g>
</g>
<g>
</g>
<g>
</g>
<g>
</g>
<g>
</g>
<g>
</g>
<g>
</g>
</svg>
