<?xml version="1.0" encoding="iso-8859-1"?>
<!-- Generator: Adobe Illustrator 19.1.0, SVG Export Plug-In . SVG Version: 6.00 Build 0)  -->
<svg version="1.1" id="Capa_1" xmlns="http://www.w3.org/2000/svg" xmlns:xlink="http://www.w3.org/1999/xlink" x="0px" y="0px"
	 viewBox="0 0 62.906 62.906" style="enable-background:new 0 0 62.906 62.906;" xml:space="preserve">
<g>
	<g id="group-4svg">
		<path id="path-1_24_" d="M51.629,40.122H15.142c-0.692,0-1.292-0.472-1.457-1.143l-4.901-20c-0.109-0.448-0.008-0.92,0.277-1.283
			c0.285-0.362,0.719-0.574,1.18-0.574H61.23c0.516,0,0.996,0.265,1.27,0.701c0.274,0.437,0.306,0.983,0.083,1.448l-9.602,20
			C52.731,39.791,52.206,40.122,51.629,40.122z M16.318,37.122h34.368l8.161-17H12.153L16.318,37.122z"/>
		<path id="path-2_24_" d="M60.979,50.122h-3.5c-0.828,0-1.5-0.671-1.5-1.5s0.672-1.5,1.5-1.5h2.427v-7H16.957l1.344,7h2.178
			c0.829,0,1.5,0.671,1.5,1.5s-0.671,1.5-1.5,1.5h-3.418c-0.719,0-1.337-0.511-1.472-1.217l-1.92-10
			c-0.085-0.44,0.031-0.894,0.316-1.239c0.285-0.344,0.709-0.544,1.157-0.544h45.837c0.829,0,1.927,0.671,1.927,1.5v10
			C62.906,49.451,61.808,50.122,60.979,50.122z"/>
		<path id="path-3_23_" d="M43.479,50.122h-10c-0.828,0-1.5-0.671-1.5-1.5s0.672-1.5,1.5-1.5h10c0.829,0,1.5,0.671,1.5,1.5
			S44.308,50.122,43.479,50.122z"/>
		<path id="path-4_15_" d="M50.38,57.423c-4.004,0-7.261-3.257-7.261-7.261s3.257-7.261,7.261-7.261s7.262,3.257,7.262,7.261
			S54.384,57.423,50.38,57.423z M50.38,45.901c-2.35,0-4.261,1.911-4.261,4.261c0,2.35,1.911,4.261,4.261,4.261
			c2.349,0,4.262-1.911,4.262-4.261C54.642,47.812,52.729,45.901,50.38,45.901z"/>
		<path id="path-5_12_" d="M27.288,57.423c-4.004,0-7.262-3.257-7.262-7.261s3.258-7.261,7.262-7.261s7.261,3.257,7.261,7.261
			S31.292,57.423,27.288,57.423z M27.288,45.901c-2.35,0-4.262,1.911-4.262,4.261c0,2.35,1.912,4.261,4.262,4.261
			s4.261-1.911,4.261-4.261C31.549,47.812,29.638,45.901,27.288,45.901z"/>
		<path id="path-6_5_" d="M17.061,49.702c-0.676,0-1.291-0.46-1.458-1.146L6.015,9.114c-0.22-0.223-0.847-0.631-1.528-0.631
			C3.653,8.483,3,9.173,3,10.055c0,0.542,0.266,1.042,0.712,1.338c0.689,0.458,0.877,1.39,0.418,2.08
			c-0.459,0.69-1.391,0.876-2.08,0.418C0.767,13.037,0,11.603,0,10.055c0-2.521,2.013-4.572,4.487-4.572
			c2.096,0,4.228,1.457,4.453,2.967l9.58,39.397c0.195,0.805-0.299,1.617-1.104,1.813C17.297,49.688,17.178,49.702,17.061,49.702z"
			/>
		<path id="path-7_3_" d="M38.479,32.122h-9c-0.828,0-1.5-0.671-1.5-1.5s0.672-1.5,1.5-1.5h9c0.829,0,1.5,0.671,1.5,1.5
			S39.308,32.122,38.479,32.122z"/>
	</g>
</g>
<g>
</g>
<g>
</g>
<g>
</g>
<g>
</g>
<g>
</g>
<g>
</g>
<g>
</g>
<g>
</g>
<g>
</g>
<g>
</g>
<g>
</g>
<g>
</g>
<g>
</g>
<g>
</g>
<g>
</g>
</svg>
