<?xml version="1.0" encoding="iso-8859-1"?>
<!-- Generator: Adobe Illustrator 19.1.0, SVG Export Plug-In . SVG Version: 6.00 Build 0)  -->
<svg version="1.1" id="Capa_1" xmlns="http://www.w3.org/2000/svg" xmlns:xlink="http://www.w3.org/1999/xlink" x="0px" y="0px"
	 viewBox="0 0 63.252 63.252" style="enable-background:new 0 0 63.252 63.252;" xml:space="preserve">
<g>
	<g id="group-5svg">
		<path id="path-1_25_" d="M51.629,40.295H15.142c-0.692,0-1.292-0.472-1.457-1.143l-4.901-20c-0.109-0.448-0.008-0.92,0.278-1.283
			c0.284-0.362,0.718-0.574,1.179-0.574h50.99c0.515,0,0.995,0.265,1.269,0.701c0.274,0.437,0.306,0.983,0.083,1.448l-9.602,20
			C52.731,39.964,52.206,40.295,51.629,40.295z M16.318,37.295h34.368l8.161-17H12.153L16.318,37.295z"/>
		<path id="path-2_25_" d="M61.325,50.295h-4.5c-0.828,0-1.5-0.671-1.5-1.5s0.672-1.5,1.5-1.5h3.427v-7H16.957l1.345,7h2.523
			c0.828,0,1.5,0.671,1.5,1.5s-0.672,1.5-1.5,1.5h-3.762c-0.72,0-1.337-0.511-1.473-1.217l-1.921-10
			c-0.085-0.44,0.031-0.894,0.316-1.238c0.285-0.345,0.709-0.545,1.157-0.545h46.183c0.828,0,1.927,0.671,1.927,1.5v10
			C63.252,49.624,62.153,50.295,61.325,50.295z"/>
		<path id="path-3_24_" d="M43.825,50.295h-10c-0.828,0-1.5-0.671-1.5-1.5s0.672-1.5,1.5-1.5h10c0.828,0,1.5,0.671,1.5,1.5
			S44.653,50.295,43.825,50.295z"/>
		<path id="path-4_16_" d="M50.381,57.596c-4.004,0-7.262-3.257-7.262-7.261s3.258-7.261,7.262-7.261s7.261,3.257,7.261,7.261
			S54.385,57.596,50.381,57.596z M50.381,46.074c-2.35,0-4.262,1.911-4.262,4.261c0,2.35,1.912,4.261,4.262,4.261
			c2.349,0,4.261-1.911,4.261-4.261C54.642,47.985,52.73,46.074,50.381,46.074z"/>
		<path id="path-5_13_" d="M27.288,57.596c-4.004,0-7.261-3.257-7.261-7.261s3.257-7.261,7.261-7.261s7.262,3.257,7.262,7.261
			S31.292,57.596,27.288,57.596z M27.288,46.074c-2.35,0-4.261,1.911-4.261,4.261c0,2.35,1.911,4.261,4.261,4.261
			s4.262-1.911,4.262-4.261C31.55,47.985,29.638,46.074,27.288,46.074z"/>
		<path id="path-6_6_" d="M17.062,49.875c-0.673,0-1.285-0.455-1.455-1.137L6.005,10.246c-0.03-0.119-0.045-0.241-0.045-0.363
			c0-0.665-0.674-1.227-1.472-1.227C3.653,8.656,3,9.346,3,10.228c0,0.542,0.266,1.042,0.712,1.337
			c0.689,0.459,0.878,1.39,0.419,2.08c-0.457,0.69-1.388,0.878-2.079,0.419C0.767,13.211,0,11.776,0,10.228
			c0-2.521,2.014-4.572,4.488-4.572c2.393,0,4.353,1.786,4.467,4.022l9.563,38.334c0.201,0.803-0.289,1.617-1.092,1.818
			C17.304,49.861,17.182,49.875,17.062,49.875z"/>
		<path id="path-7_4_" d="M33.221,35.166c-0.384,0-0.768-0.146-1.061-0.439c-0.586-0.586-0.586-1.536,0-2.121l6.856-6.856
			c0.586-0.585,1.535-0.585,2.121,0.001c0.586,0.585,0.586,1.535,0,2.121l-6.856,6.855C33.988,35.02,33.604,35.166,33.221,35.166z"
			/>
		<path id="path-8_1_" d="M40.076,35.166c-0.384,0-0.767-0.146-1.06-0.439l-6.856-6.855c-0.586-0.586-0.586-1.536,0-2.121
			c0.586-0.586,1.535-0.586,2.121-0.001l6.856,6.856c0.586,0.585,0.586,1.535,0,2.121C40.844,35.02,40.46,35.166,40.076,35.166z"/>
	</g>
</g>
<g>
</g>
<g>
</g>
<g>
</g>
<g>
</g>
<g>
</g>
<g>
</g>
<g>
</g>
<g>
</g>
<g>
</g>
<g>
</g>
<g>
</g>
<g>
</g>
<g>
</g>
<g>
</g>
<g>
</g>
</svg>
