<?xml version="1.0" encoding="iso-8859-1"?>
<!-- Generator: Adobe Illustrator 19.1.0, SVG Export Plug-In . SVG Version: 6.00 Build 0)  -->
<svg version="1.1" id="Capa_1" xmlns="http://www.w3.org/2000/svg" xmlns:xlink="http://www.w3.org/1999/xlink" x="0px" y="0px"
	 viewBox="0 0 62.906 62.906" style="enable-background:new 0 0 62.906 62.906;" xml:space="preserve">
<g>
	<g id="group-6svg">
		<path id="path-1_26_" d="M51.629,40.122H15.142c-0.692,0-1.292-0.472-1.457-1.143l-4.901-20c-0.109-0.448-0.008-0.92,0.277-1.283
			c0.285-0.362,0.719-0.574,1.18-0.574H61.23c0.516,0,0.996,0.265,1.27,0.701c0.274,0.437,0.306,0.983,0.083,1.448l-9.602,20
			C52.731,39.791,52.206,40.122,51.629,40.122z M16.318,37.122h34.368l8.161-17H12.153L16.318,37.122z"/>
		<path id="path-2_26_" d="M60.979,50.122h-3.5c-0.828,0-1.5-0.671-1.5-1.5s0.672-1.5,1.5-1.5h2.427v-7H16.957l1.344,7h2.178
			c0.829,0,1.5,0.671,1.5,1.5s-0.671,1.5-1.5,1.5h-3.418c-0.719,0-1.337-0.511-1.472-1.217l-1.92-10
			c-0.085-0.44,0.031-0.894,0.316-1.239c0.285-0.344,0.709-0.544,1.157-0.544h45.837c0.829,0,1.927,0.671,1.927,1.5v10
			C62.906,49.451,61.808,50.122,60.979,50.122z"/>
		<path id="path-3_25_" d="M43.479,50.122h-10c-0.828,0-1.5-0.671-1.5-1.5s0.672-1.5,1.5-1.5h10c0.829,0,1.5,0.671,1.5,1.5
			S44.308,50.122,43.479,50.122z"/>
		<path id="path-4_17_" d="M50.38,57.423c-4.004,0-7.261-3.257-7.261-7.261s3.257-7.261,7.261-7.261s7.262,3.257,7.262,7.261
			S54.384,57.423,50.38,57.423z M50.38,45.901c-2.35,0-4.261,1.911-4.261,4.261c0,2.35,1.911,4.261,4.261,4.261
			c2.349,0,4.262-1.911,4.262-4.261C54.642,47.812,52.729,45.901,50.38,45.901z"/>
		<path id="path-5_14_" d="M27.288,57.423c-4.004,0-7.262-3.257-7.262-7.261s3.258-7.261,7.262-7.261s7.261,3.257,7.261,7.261
			S31.292,57.423,27.288,57.423z M27.288,45.901c-2.35,0-4.262,1.911-4.262,4.261c0,2.35,1.912,4.261,4.262,4.261
			s4.261-1.911,4.261-4.261C31.549,47.812,29.638,45.901,27.288,45.901z"/>
		<path id="path-6_7_" d="M17.061,49.702c-0.673,0-1.285-0.455-1.455-1.137L6.005,10.073C5.975,9.954,5.96,9.832,5.96,9.71
			c0-0.665-0.675-1.227-1.473-1.227C3.653,8.483,3,9.173,3,10.055c0,0.542,0.266,1.042,0.712,1.338
			c0.689,0.458,0.877,1.39,0.418,2.08c-0.459,0.69-1.391,0.876-2.08,0.418C0.767,13.037,0,11.603,0,10.055
			c0-2.521,2.013-4.572,4.487-4.572c2.394,0,4.354,1.786,4.468,4.022l9.562,38.334c0.201,0.803-0.289,1.617-1.092,1.818
			C17.303,49.688,17.181,49.702,17.061,49.702z"/>
		<path id="path-7_5_" d="M36.298,35.122c-0.015,0-0.03,0-0.046,0c-0.413,0-0.803-0.298-1.077-0.608l-3.035-3.479
			c-0.549-0.621-0.492-1.595,0.129-2.143c0.619-0.55,1.567-0.505,2.117,0.115l1.978,2.228l5.729-5.732
			c0.586-0.585,1.535-0.587,2.121-0.001c0.586,0.586,0.586,1.535,0,2.12l-6.856,6.958C37.077,34.862,36.695,35.122,36.298,35.122z"
			/>
	</g>
</g>
<g>
</g>
<g>
</g>
<g>
</g>
<g>
</g>
<g>
</g>
<g>
</g>
<g>
</g>
<g>
</g>
<g>
</g>
<g>
</g>
<g>
</g>
<g>
</g>
<g>
</g>
<g>
</g>
<g>
</g>
</svg>
