<?xml version="1.0" encoding="iso-8859-1"?>
<!-- Generator: Adobe Illustrator 19.1.0, SVG Export Plug-In . SVG Version: 6.00 Build 0)  -->
<svg version="1.1" id="Capa_1" xmlns="http://www.w3.org/2000/svg" xmlns:xlink="http://www.w3.org/1999/xlink" x="0px" y="0px"
	 viewBox="0 0 63.04 63.04" style="enable-background:new 0 0 63.04 63.04;" xml:space="preserve">
<g>
	<g id="group-7svg">
		<path id="path-1_27_" d="M51.629,40.189H15.142c-0.692,0-1.293-0.472-1.457-1.143l-4.901-20c-0.109-0.448-0.007-0.92,0.278-1.283
			c0.284-0.362,0.718-0.574,1.179-0.574h50.991c0.515,0,0.995,0.265,1.269,0.701c0.275,0.437,0.306,0.983,0.083,1.448l-9.602,20
			C52.732,39.858,52.206,40.189,51.629,40.189z M16.319,37.189h34.367l8.162-17H12.154L16.319,37.189z"/>
		<path id="path-2_27_" d="M61.113,50.189h-4.5c-0.828,0-1.5-0.671-1.5-1.5s0.672-1.5,1.5-1.5h3.427v-7H16.957l1.345,7h2.311
			c0.829,0,1.5,0.671,1.5,1.5s-0.671,1.5-1.5,1.5h-3.55c-0.72,0-1.337-0.511-1.473-1.217l-1.921-10
			c-0.085-0.44,0.031-0.894,0.317-1.238c0.285-0.345,0.709-0.545,1.156-0.545h45.971c0.829,0,1.927,0.671,1.927,1.5v10
			C63.04,49.518,61.942,50.189,61.113,50.189z"/>
		<path id="path-3_26_" d="M43.613,50.189h-10c-0.828,0-1.5-0.671-1.5-1.5s0.672-1.5,1.5-1.5h10c0.829,0,1.5,0.671,1.5,1.5
			S44.442,50.189,43.613,50.189z"/>
		<path id="path-4_18_" d="M50.381,57.49c-4.004,0-7.261-3.257-7.261-7.261s3.257-7.261,7.261-7.261s7.261,3.257,7.261,7.261
			S54.385,57.49,50.381,57.49z M50.381,45.968c-2.35,0-4.261,1.911-4.261,4.261c0,2.35,1.911,4.261,4.261,4.261
			c2.35,0,4.261-1.911,4.261-4.261C54.642,47.879,52.731,45.968,50.381,45.968z"/>
		<path id="path-5_15_" d="M27.288,57.49c-4.004,0-7.261-3.257-7.261-7.261s3.257-7.261,7.261-7.261s7.262,3.257,7.262,7.261
			S31.292,57.49,27.288,57.49z M27.288,45.968c-2.349,0-4.26,1.911-4.26,4.261c0,2.35,1.911,4.261,4.26,4.261
			c2.35,0,4.262-1.911,4.262-4.261C31.55,47.879,29.638,45.968,27.288,45.968z"/>
		<path id="path-6_8_" d="M17.062,49.769c-0.673,0-1.284-0.455-1.454-1.137L6.005,10.14C5.975,10.021,5.96,9.899,5.96,9.777
			c0-0.665-0.674-1.227-1.472-1.227C3.654,8.55,3,9.24,3,10.122c0,0.542,0.266,1.042,0.712,1.337c0.69,0.459,0.878,1.39,0.419,2.08
			c-0.457,0.69-1.388,0.878-2.079,0.419C0.767,13.105,0,11.67,0,10.122C0,7.601,2.014,5.55,4.488,5.55
			c2.393,0,4.353,1.786,4.467,4.022l9.563,38.334c0.201,0.803-0.288,1.617-1.092,1.818C17.304,49.755,17.182,49.769,17.062,49.769z"
			/>
		<path id="path-7_6_" d="M36.739,33.189h-4.126c-0.552,0-1-0.448-1-1c0-0.552,0.448-1,1-1h4.126c0.227,0,0.874-0.084,0.874-0.457
			c0-0.371-0.521-0.543-0.874-0.543h-2.005c-1.413,0-2.694-1.308-2.694-2.933v-0.343c0-1.559,1.221-2.724,2.694-2.724h3.879
			c0.553,0,1,0.448,1,1s-0.447,1-1,1h-3.879c-0.52,0-0.694,0.438-0.694,0.724v0.343c0,0.338,0.221,0.933,0.694,0.933h2.005
			c1.612,0,2.874,1.116,2.874,2.541C39.613,32.156,38.404,33.189,36.739,33.189z"/>
		<path id="path-8_2_" d="M36.04,35.189c-0.553,0-1-0.448-1-1v-11c0-0.552,0.447-1,1-1c0.553,0,1,0.448,1,1v11
			C37.04,34.741,36.593,35.189,36.04,35.189z"/>
	</g>
</g>
<g>
</g>
<g>
</g>
<g>
</g>
<g>
</g>
<g>
</g>
<g>
</g>
<g>
</g>
<g>
</g>
<g>
</g>
<g>
</g>
<g>
</g>
<g>
</g>
<g>
</g>
<g>
</g>
<g>
</g>
</svg>
