<?xml version="1.0" encoding="iso-8859-1"?>
<!-- Generator: Adobe Illustrator 19.1.0, SVG Export Plug-In . SVG Version: 6.00 Build 0)  -->
<svg version="1.1" id="Capa_1" xmlns="http://www.w3.org/2000/svg" xmlns:xlink="http://www.w3.org/1999/xlink" x="0px" y="0px"
	 viewBox="0 0 63.373 63.373" style="enable-background:new 0 0 63.373 63.373;" xml:space="preserve">
<g>
	<g id="group-8svg">
		<path id="path-1_28_" d="M51.629,40.355H15.142c-0.692,0-1.292-0.472-1.458-1.143l-4.9-20c-0.109-0.448-0.008-0.92,0.277-1.283
			c0.285-0.362,0.719-0.574,1.18-0.574H61.23c0.516,0,0.996,0.265,1.27,0.701c0.274,0.437,0.306,0.983,0.083,1.448l-9.602,20
			C52.731,40.024,52.206,40.355,51.629,40.355z M16.318,37.355h34.367l8.162-17H12.153L16.318,37.355z"/>
		<path id="path-2_28_" d="M61.446,50.355h-4.5c-0.828,0-1.5-0.671-1.5-1.5s0.672-1.5,1.5-1.5h3.427v-7H16.957l1.344,7h2.645
			c0.828,0,1.5,0.671,1.5,1.5s-0.672,1.5-1.5,1.5h-3.885c-0.719,0-1.337-0.511-1.472-1.217l-1.92-10
			c-0.085-0.44,0.031-0.894,0.316-1.239c0.285-0.344,0.709-0.544,1.157-0.544h46.304c0.828,0,1.927,0.671,1.927,1.5v10
			C63.373,49.684,62.274,50.355,61.446,50.355z"/>
		<path id="path-3_27_" d="M43.946,50.355h-10c-0.828,0-1.5-0.671-1.5-1.5s0.672-1.5,1.5-1.5h10c0.828,0,1.5,0.671,1.5,1.5
			S44.774,50.355,43.946,50.355z"/>
		<path id="path-4_19_" d="M50.381,57.656c-4.004,0-7.262-3.257-7.262-7.261s3.258-7.261,7.262-7.261s7.261,3.257,7.261,7.261
			S54.385,57.656,50.381,57.656z M50.381,46.134c-2.35,0-4.262,1.911-4.262,4.261c0,2.35,1.912,4.261,4.262,4.261
			c2.349,0,4.26-1.911,4.26-4.261C54.641,48.045,52.73,46.134,50.381,46.134z"/>
		<path id="path-5_16_" d="M27.288,57.656c-4.004,0-7.261-3.257-7.261-7.261s3.257-7.261,7.261-7.261s7.261,3.257,7.261,7.261
			S31.292,57.656,27.288,57.656z M27.288,46.134c-2.35,0-4.261,1.911-4.261,4.261c0,2.35,1.911,4.261,4.261,4.261
			s4.261-1.911,4.261-4.261C31.549,48.045,29.638,46.134,27.288,46.134z"/>
		<path id="path-6_9_" d="M17.06,49.936c-0.675,0-1.29-0.46-1.457-1.146L6.015,9.348c-0.22-0.223-0.846-0.631-1.527-0.631
			C3.653,8.717,3,9.407,3,10.289c0,0.542,0.266,1.042,0.712,1.337c0.689,0.459,0.878,1.39,0.419,2.08
			c-0.457,0.69-1.388,0.878-2.079,0.419C0.767,13.272,0,11.837,0,10.289c0-2.521,2.014-4.572,4.488-4.572
			c2.095,0,4.227,1.457,4.452,2.967l9.579,39.397c0.196,0.805-0.298,1.617-1.103,1.813C17.297,49.922,17.178,49.936,17.06,49.936z"
			/>
		<path id="path-7_7_" d="M36.129,27.356c0.452,0,0.841,0.267,1.168,0.002c0.325-0.265,0.488-0.446,0.488-0.94
			c0-0.379-0.129-0.604-0.39-0.877c-0.259-0.271-0.611-0.358-1.052-0.358c-0.299,0-0.546,0.067-0.741,0.149
			c-0.194,0.085-0.346,0.206-0.459,0.345c-0.114,0.137-0.221,0.32-0.321,0.536c-0.1,0.215-0.192,0.422-0.276,0.614
			c-0.049,0.103-0.137,0.186-0.266,0.245c-0.127,0.059-0.274,0.089-0.441,0.089c-0.196,0-0.377-0.079-0.541-0.239
			c-0.165-0.16-0.247-0.372-0.247-0.637c0-0.255,0.078-0.524,0.232-0.806c0.155-0.282,0.38-0.551,0.678-0.806
			c0.297-0.256,0.666-0.461,1.107-0.614c0.443-0.156,0.936-0.233,1.481-0.233c0.476,0,0.911,0.065,1.303,0.195
			c0.393,0.13,0.734,0.318,1.023,0.564c0.291,0.244,0.509,0.53,0.655,0.854c0.148,0.324,0.222,0.671,0.222,1.046
			c0,0.49-0.107,0.911-0.32,1.262c-0.213,0.351-0.52,0.694-0.917,1.026c0.382,0.207,0.706,0.442,0.968,0.707
			c0.262,0.266,0.46,0.56,0.592,0.882c0.133,0.32,0.199,0.667,0.199,1.041c0,0.447-0.089,0.878-0.268,1.296
			c-0.18,0.417-0.443,0.789-0.792,1.115c-0.348,0.327-0.762,0.583-1.24,0.766c-0.479,0.185-1.008,0.276-1.587,0.276
			c-0.589,0-1.117-0.106-1.583-0.316c-0.466-0.212-0.851-0.475-1.153-0.791c-0.302-0.317-0.53-0.646-0.684-0.984
			c-0.155-0.339-0.233-0.619-0.233-0.84c0-0.284,0.093-0.513,0.277-0.688c0.184-0.174,0.414-0.26,0.688-0.26
			c0.138,0,0.271,0.039,0.398,0.121c0.128,0.08,0.212,0.177,0.25,0.291c0.255,0.681,0.529,1.188,0.821,1.521
			c0.292,0.33,0.703,0.496,1.233,0.496c0.305,0,0.598-0.075,0.88-0.225c0.282-0.149,0.516-0.372,0.7-0.667
			c0.184-0.294,0.276-0.635,0.276-1.022c0-0.575-0.157-1.025-0.472-1.351c-0.313-0.328-0.751-0.49-1.31-0.49
			c-0.098,0-0.25,0.008-0.457,0.03c-0.206,0.018-0.338,0.029-0.397,0.029c-0.27,0-0.478-0.067-0.626-0.202
			c-0.147-0.137-0.221-0.324-0.221-0.564c0-0.235,0.088-0.826,0.265-0.97c0.177-0.145,0.439-0.618,0.788-0.618H36.129z"/>
	</g>
</g>
<g>
</g>
<g>
</g>
<g>
</g>
<g>
</g>
<g>
</g>
<g>
</g>
<g>
</g>
<g>
</g>
<g>
</g>
<g>
</g>
<g>
</g>
<g>
</g>
<g>
</g>
<g>
</g>
<g>
</g>
</svg>
