<?xml version="1.0" encoding="iso-8859-1"?>
<!-- Generator: Adobe Illustrator 19.1.0, SVG Export Plug-In . SVG Version: 6.00 Build 0)  -->
<svg version="1.1" id="Capa_1" xmlns="http://www.w3.org/2000/svg" xmlns:xlink="http://www.w3.org/1999/xlink" x="0px" y="0px"
	 viewBox="0 0 62.749 62.749" style="enable-background:new 0 0 62.749 62.749;" xml:space="preserve">
<g>
	<g id="group-9svg">
		<path id="path-1_29_" d="M51.629,43.917H15.142c-0.692,0-1.293-0.472-1.458-1.143l-4.9-20c-0.109-0.448-0.008-0.92,0.277-1.283
			c0.285-0.362,0.719-0.574,1.18-0.574H61.23c0.516,0,0.996,0.265,1.27,0.701c0.274,0.437,0.306,0.983,0.083,1.448l-9.602,20
			C52.731,43.586,52.206,43.917,51.629,43.917z M16.318,40.917h34.367l8.162-17H12.153L16.318,40.917z"/>
		<path id="path-2_29_" d="M60.822,53.917h-4.5c-0.828,0-1.5-0.671-1.5-1.5s0.672-1.5,1.5-1.5h3.427v-7H16.957l1.344,7h2.021
			c0.828,0,1.5,0.671,1.5,1.5s-0.672,1.5-1.5,1.5h-3.261c-0.719,0-1.337-0.511-1.472-1.217l-1.92-10
			c-0.085-0.44,0.031-0.894,0.316-1.239c0.285-0.344,0.709-0.544,1.157-0.544h45.68c0.828,0,1.927,0.671,1.927,1.5v10
			C62.749,53.246,61.65,53.917,60.822,53.917z"/>
		<path id="path-3_28_" d="M43.322,53.917h-10c-0.828,0-1.5-0.671-1.5-1.5s0.672-1.5,1.5-1.5h10c0.828,0,1.5,0.671,1.5,1.5
			S44.15,53.917,43.322,53.917z"/>
		<path id="path-4_20_" d="M50.38,60.832c-4.004,0-7.261-3.257-7.261-7.261s3.257-7.261,7.261-7.261s7.262,3.257,7.262,7.261
			S54.384,60.832,50.38,60.832z M50.38,49.31c-2.35,0-4.261,1.911-4.261,4.261c0,2.349,1.911,4.261,4.261,4.261
			c2.349,0,4.262-1.912,4.262-4.261C54.642,51.221,52.729,49.31,50.38,49.31z"/>
		<path id="path-5_17_" d="M27.288,60.832c-4.004,0-7.262-3.257-7.262-7.261s3.258-7.261,7.262-7.261s7.261,3.257,7.261,7.261
			S31.292,60.832,27.288,60.832z M27.288,49.31c-2.35,0-4.262,1.911-4.262,4.261c0,2.349,1.912,4.261,4.262,4.261
			s4.261-1.912,4.261-4.261C31.549,51.221,29.638,49.31,27.288,49.31z"/>
		<path id="path-6_10_" d="M17.06,53.111c-0.675,0-1.29-0.46-1.457-1.146L6.015,12.523c-0.22-0.224-0.847-0.631-1.528-0.631
			C3.653,11.892,3,12.582,3,13.463c0,0.542,0.266,1.042,0.712,1.338c0.689,0.458,0.878,1.389,0.42,2.079
			c-0.459,0.691-1.388,0.878-2.08,0.42C0.767,16.447,0,15.013,0,13.463c0-2.521,2.013-4.571,4.487-4.571
			c2.096,0,4.228,1.457,4.453,2.967l9.579,39.397c0.196,0.805-0.298,1.616-1.103,1.812C17.297,53.097,17.178,53.111,17.06,53.111z"
			/>
		<path id="path-7_8_" d="M53.381,23.531c-0.576,0-1.125-0.333-1.373-0.893l-4.421-9.996l-8.498,3.913l2.485,4.784
			c0.382,0.736,0.096,1.641-0.64,2.023c-0.733,0.381-1.64,0.096-2.022-0.64l-3.211-6.181c-0.189-0.364-0.221-0.79-0.088-1.178
			c0.133-0.387,0.419-0.704,0.792-0.876L47.716,9.28c0.363-0.168,0.781-0.183,1.157-0.04c0.376,0.142,0.679,0.428,0.842,0.796
			l5.037,11.388c0.335,0.758-0.008,1.643-0.766,1.978C53.789,23.49,53.583,23.531,53.381,23.531z"/>
		<path id="path-8_3_" d="M32.007,22.917H19.822c-0.828,0-1.073-0.671-1.073-1.5v-9.939c0-0.728,0.309-1.351,1.025-1.478
			l15.319-2.726c0.502-0.089,0.961,0.083,1.307,0.457c0.347,0.374,0.453,0.898,0.327,1.392l-3.253,12.666
			C33.304,22.453,32.692,22.917,32.007,22.917z M21.749,19.917h9.093l2.589-9.284l-11.682,2.103V19.917z"/>
		<path id="path-9" d="M37.249,14.417c-0.828,0-1.5-0.671-1.5-1.5v-8h-10v4c0,0.829-0.672,1.5-1.5,1.5s-1.5-0.671-1.5-1.5v-5.5
			c0-0.829,0.245-1.5,1.073-1.5h13c0.828,0,1.927,0.671,1.927,1.5v9.5C38.749,13.746,38.077,14.417,37.249,14.417z"/>
	</g>
</g>
<g>
</g>
<g>
</g>
<g>
</g>
<g>
</g>
<g>
</g>
<g>
</g>
<g>
</g>
<g>
</g>
<g>
</g>
<g>
</g>
<g>
</g>
<g>
</g>
<g>
</g>
<g>
</g>
<g>
</g>
</svg>
