<?xml version="1.0" encoding="iso-8859-1"?>
<!-- Generator: Adobe Illustrator 19.1.0, SVG Export Plug-In . SVG Version: 6.00 Build 0)  -->
<svg version="1.1" id="Capa_1" xmlns="http://www.w3.org/2000/svg" xmlns:xlink="http://www.w3.org/1999/xlink" x="0px" y="0px"
	 viewBox="0 0 64.111 64.111" style="enable-background:new 0 0 64.111 64.111;" xml:space="preserve">
<g>
	<g id="group-11svg">
		<path id="path-1_2_" style="fill:#81BDA4;" d="M56.111,30.556v26h-44v-26l0,0"/>
		<path id="path-2_2_" style="fill:#8B71B5;" d="M43.111,56.556h-17v-17h17V56.556z"/>
		<path id="path-3_2_" style="fill:#FF917B;" d="M64.111,29.459L56.11,12.556H12.961L4.5,29.469c0,0,0,0.348,0.159,0.647
			c0.601,1.136,3.481,2.202,7.578,2.202c4.099,0,7.42-0.884,7.42-2.169c0-0.299,0.132-0.352,0.132-0.053
			c0,1.284,3.322,2.22,7.42,2.22s7.42-0.883,7.42-2.168c0-0.299,0.131-0.352,0.131-0.053c0,1.285,3.322,2.221,7.42,2.221
			s7.42-0.884,7.42-2.168c0-0.299,0.132-0.352,0.132-0.053c0,1.285,3.091,2.221,7.19,2.221c4.097,0,7.189-0.884,7.189-2.168
			C64.111,29.848,64.111,29.459,64.111,29.459z"/>
		<path id="path-4_2_" d="M40.611,54.556h-17c-0.829,0-1.5-0.671-1.5-1.5v-17c0-0.829,0.671-1.5,1.5-1.5h17
			c0.829,0,1.5,0.671,1.5,1.5v17C42.111,53.884,41.44,54.556,40.611,54.556z M25.111,51.556h14v-14h-14V51.556z"/>
		<path id="path-5_2_" d="M53.611,54.556h-44c-0.829,0-1.5-0.671-1.5-1.5v-23.5c0-0.829,0.671-1.5,1.5-1.5s1.5,0.671,1.5,1.5v22h41
			v-22c0-0.829,0.671-1.5,1.5-1.5s1.5,0.671,1.5,1.5v23.5C55.111,53.884,54.44,54.556,53.611,54.556z"/>
		<path id="path-6_2_" d="M54.171,30.816c-1.486,0-5.359-0.135-7.487-1.445c-2.116,1.31-6.013,1.444-7.504,1.444
			c-1.479,0-5.324-0.134-7.452-1.433c-1.999,1.25-5.636,1.426-7.519,1.426c-1.486,0-5.358-0.135-7.479-1.452
			c-2.005,1.226-5.618,1.4-7.493,1.4c-4.424,0-7.92-1.202-8.904-3.062C0.024,27.11,0,26.417,0,26.219
			c0-0.23,0.053-0.457,0.155-0.664L8.616,8.392C8.868,7.88,9.39,7.556,9.961,7.556H53.11c0.574,0,1.097,0.327,1.348,0.842
			l8.501,17.404c0.1,0.205,0.152,0.43,0.152,0.658v0.688C63.111,30.552,56.269,30.816,54.171,30.816z M48.209,26.784
			c0.56,0.401,2.649,1.032,5.962,1.032c3.267,0,5.341-0.587,5.94-0.974v-0.035l-7.937-16.251h-41.28L3.087,26.392
			c0.523,0.449,2.54,1.364,6.15,1.364c3.47,0,5.408-0.61,5.943-0.963c0.264-1.839,2.816-1.87,3.087-0.02
			c0.556,0.402,2.637,1.035,5.942,1.035c3.47,0,5.41-0.623,5.941-0.983c0.26-1.85,2.815-1.886,3.088-0.041
			c0.557,0.401,2.638,1.031,5.942,1.031c3.298,0,5.375-0.6,5.942-0.986C45.38,24.978,47.933,24.941,48.209,26.784z"/>
	</g>
</g>
<g>
</g>
<g>
</g>
<g>
</g>
<g>
</g>
<g>
</g>
<g>
</g>
<g>
</g>
<g>
</g>
<g>
</g>
<g>
</g>
<g>
</g>
<g>
</g>
<g>
</g>
<g>
</g>
<g>
</g>
</svg>
