<?xml version="1.0" encoding="iso-8859-1"?>
<!-- Generator: Adobe Illustrator 19.1.0, SVG Export Plug-In . SVG Version: 6.00 Build 0)  -->
<svg version="1.1" id="Capa_1" xmlns="http://www.w3.org/2000/svg" xmlns:xlink="http://www.w3.org/1999/xlink" x="0px" y="0px"
	 viewBox="0 0 63.692 63.692" style="enable-background:new 0 0 63.692 63.692;" xml:space="preserve">
<g>
	<g id="group-12svg">
		<path id="path-1_3_" style="fill:#FF917B;" d="M55.692,27.346v29h-44v-29l0,0"/>
		<path id="path-2_3_" style="fill:#8B71B5;" d="M63.692,28.75L56.11,12.346H12.961L4.5,29.009c0,0,0,0.223,0.159,0.523
			c0.601,1.135,3.48,2.139,7.578,2.139s7.42-0.916,7.42-2.201c0-0.299,0.132-0.368,0.132-0.069c0,1.285,3.321,2.213,7.42,2.213
			c4.098,0,7.42-0.887,7.42-2.172c0-0.299,0.131-0.354,0.131-0.055c0,1.285,3.322,2.22,7.42,2.22s7.42-0.884,7.42-2.169
			c0-0.299,0.131-0.352,0.131-0.053c0,1.285,2.883,2.221,6.981,2.221s6.98-0.884,6.98-2.168
			C63.692,29.139,63.692,28.75,63.692,28.75z"/>
		<path id="path-3_3_" style="fill:#EDC951;" d="M47.692,56.346h-9v-13h9V56.346z"/>
		<path id="path-4_3_" style="fill:#EDC951;" d="M29.692,56.346h-9v-13h9V56.346z"/>
		<path id="path-5_3_" d="M45.192,54.346h-9c-0.828,0-1.5-0.671-1.5-1.5v-13c0-0.829,0.672-1.5,1.5-1.5h9c0.829,0,1.5,0.671,1.5,1.5
			v13C46.692,53.675,46.021,54.346,45.192,54.346z M37.692,51.346h6v-10h-6V51.346z"/>
		<path id="path-6_3_" d="M27.192,54.346h-9c-0.828,0-1.5-0.671-1.5-1.5v-13c0-0.829,0.672-1.5,1.5-1.5h9c0.829,0,1.5,0.671,1.5,1.5
			v13C28.692,53.675,28.021,54.346,27.192,54.346z M19.692,51.346h6v-10h-6V51.346z"/>
		<path id="path-7_2_" d="M53.192,54.346h-44c-0.828,0-1.5-0.671-1.5-1.5v-23.5c0-0.829,0.672-1.5,1.5-1.5
			c0.829,0,1.5,0.671,1.5,1.5v22h41v-22c0-0.829,0.672-1.5,1.5-1.5c0.829,0,1.5,0.671,1.5,1.5v23.5
			C54.692,53.675,54.021,54.346,53.192,54.346z"/>
		<path id="path-8_2_" d="M9.237,30.108c-4.444,0-7.94-1.178-8.904-2.999C0.024,26.525,0,25.928,0,25.759
			c0-0.233,0.054-0.463,0.159-0.671l8.46-16.913c0.254-0.508,0.774-0.829,1.342-0.829H53.11c0.578,0,1.104,0.332,1.354,0.853
			l8.082,16.904c0.096,0.202,0.146,0.423,0.146,0.647v0.688c0,3.31-6.105,3.668-8.73,3.668c-1.448,0-5.213-0.135-7.295-1.433
			c-2.12,1.299-6,1.433-7.487,1.433c-1.484,0-5.345-0.135-7.469-1.443c-2.116,1.309-6.011,1.443-7.502,1.443
			c-1.483,0-5.345-0.135-7.468-1.442C14.625,29.973,10.729,30.108,9.237,30.108z M3.123,25.867c0.532,0.385,2.538,1.241,6.114,1.241
			c3.298,0,5.375-0.601,5.942-0.987c0.258-1.852,2.814-1.889,3.088-0.045c0.556,0.4,2.637,1.03,5.942,1.03
			c3.297,0,5.375-0.6,5.941-0.986c0.258-1.852,2.814-1.888,3.088-0.044c0.557,0.4,2.638,1.03,5.942,1.03
			c3.298,0,5.375-0.601,5.942-0.986c0.258-1.86,2.837-1.889,3.09-0.02c0.494,0.364,2.366,1.006,5.75,1.006
			c3.335,0,5.201-0.597,5.73-0.95V26.09l-7.527-15.744H10.887L3.123,25.867z"/>
		<path id="path-9_2_" d="M40.692,35.346h-18c-0.828,0-1.5-0.671-1.5-1.5c0-0.829,0.672-1.5,1.5-1.5h18c0.829,0,1.5,0.671,1.5,1.5
			C42.192,34.675,41.521,35.346,40.692,35.346z"/>
	</g>
</g>
<g>
</g>
<g>
</g>
<g>
</g>
<g>
</g>
<g>
</g>
<g>
</g>
<g>
</g>
<g>
</g>
<g>
</g>
<g>
</g>
<g>
</g>
<g>
</g>
<g>
</g>
<g>
</g>
<g>
</g>
</svg>
