<?xml version="1.0" encoding="iso-8859-1"?>
<!-- Generator: Adobe Illustrator 19.1.0, SVG Export Plug-In . SVG Version: 6.00 Build 0)  -->
<svg version="1.1" id="Capa_1" xmlns="http://www.w3.org/2000/svg" xmlns:xlink="http://www.w3.org/1999/xlink" x="0px" y="0px"
	 viewBox="0 0 64.859 64.859" style="enable-background:new 0 0 64.859 64.859;" xml:space="preserve">
<g>
	<g id="group-13svg">
		<path id="path-1_4_" style="fill:#FF917B;" d="M56.859,29.43v28h-44v-28l0,0"/>
		<path id="path-2_4_" style="fill:#8B71B5;" d="M47.859,29.43v20h-26v-20l0,0"/>
		<path id="path-3_4_" style="fill:#53ECF4;" d="M64.859,30.677L57.11,13.43H13.96L5.5,30.514c0,0,0,0.435,0.159,0.734
			c0.601,1.136,3.48,2.244,7.578,2.244s7.42-0.863,7.42-2.148c0-0.298,0.131-0.341,0.131-0.042c0,1.285,3.322,2.226,7.42,2.226
			s7.42-0.881,7.42-2.165c0-0.299,0.132-0.351,0.132-0.052c0,1.284,3.322,2.221,7.42,2.221s7.42-0.882,7.42-2.167
			c0-0.299,0.131-0.352,0.131-0.053c0,1.285,2.966,2.221,7.064,2.221s7.064-0.883,7.064-2.168
			C64.859,31.066,64.859,30.677,64.859,30.677z"/>
		<path id="path-4_4_" d="M53.359,54.43h-44c-0.829,0-1.5-0.671-1.5-1.5v-23.5c0-0.829,0.671-1.5,1.5-1.5c0.828,0,1.5,0.671,1.5,1.5
			v22h41v-22c0-0.829,0.671-1.5,1.5-1.5c0.828,0,1.5,0.671,1.5,1.5v23.5C54.859,53.758,54.187,54.43,53.359,54.43z"/>
		<path id="path-5_4_" d="M44.359,46.43h-26c-0.829,0-1.5-0.671-1.5-1.5v-15.5c0-0.829,0.671-1.5,1.5-1.5c0.828,0,1.5,0.671,1.5,1.5
			v14h23v-14c0-0.829,0.671-1.5,1.5-1.5c0.828,0,1.5,0.671,1.5,1.5v15.5C45.859,45.758,45.187,46.43,44.359,46.43z"/>
		<path id="path-6_4_" d="M54.045,31.034c-1.459,0-5.247-0.133-7.352-1.425c-2,1.247-5.632,1.423-7.513,1.423
			c-1.48,0-5.329-0.134-7.455-1.435c-2,1.249-5.634,1.424-7.517,1.424c-1.49,0-5.384-0.136-7.501-1.468
			c-2.009,1.207-5.602,1.377-7.47,1.377c-4.343,0-7.921-1.247-8.904-3.104C0.032,27.257,0,26.545,0,26.264
			c0-0.228,0.052-0.453,0.152-0.658l8.46-17.335C8.864,7.757,9.387,7.43,9.96,7.43h43.15c0.584,0,1.114,0.338,1.361,0.868
			l8.248,17.749c0.092,0.197,0.14,0.413,0.14,0.632v0.687C62.859,30.677,56.695,31.034,54.045,31.034z M48.211,27.017
			c0.54,0.395,2.58,1.017,5.834,1.017c3.374,0,5.27-0.603,5.814-0.959V27.01l-7.706-16.58H10.897L3.053,26.502
			c0.449,0.436,2.479,1.428,6.184,1.428c3.468,0,5.406-0.597,5.943-0.945c0.269-1.829,2.817-1.858,3.087-0.004
			c0.556,0.404,2.637,1.04,5.941,1.04c3.47,0,5.41-0.621,5.942-0.981c0.26-1.849,2.816-1.884,3.088-0.039
			c0.556,0.401,2.637,1.032,5.942,1.032c3.297,0,5.375-0.601,5.941-0.986C45.38,25.191,47.949,25.159,48.211,27.017z"/>
	</g>
</g>
<g>
</g>
<g>
</g>
<g>
</g>
<g>
</g>
<g>
</g>
<g>
</g>
<g>
</g>
<g>
</g>
<g>
</g>
<g>
</g>
<g>
</g>
<g>
</g>
<g>
</g>
<g>
</g>
<g>
</g>
</svg>
