<?xml version="1.0" encoding="iso-8859-1"?>
<!-- Generator: Adobe Illustrator 19.1.0, SVG Export Plug-In . SVG Version: 6.00 Build 0)  -->
<svg version="1.1" id="Capa_1" xmlns="http://www.w3.org/2000/svg" xmlns:xlink="http://www.w3.org/1999/xlink" x="0px" y="0px"
	 viewBox="0 0 65.139 65.139" style="enable-background:new 0 0 65.139 65.139;" xml:space="preserve">
<g>
	<g id="group-14svg">
		<path id="path-1_5_" style="fill:#99746A;" d="M57.139,35.069v27h-44v-27l0,0"/>
		<path id="path-2_5_" style="fill:#EDC951;" d="M47.139,36.069v22h-26v-22l0,0"/>
		<path id="path-3_5_" style="fill:#81BDA4;" d="M65.139,38.028L57.11,22.069H13.96L5.5,38.509c0,0,0,0.112,0.159,0.412
			c0.601,1.135,3.48,2.083,7.578,2.083s7.42-0.943,7.42-2.229c0-0.298,0.131-0.381,0.131-0.082c0,1.285,3.323,2.206,7.42,2.206
			c4.098,0,7.42-0.891,7.42-2.176c0-0.299,0.132-0.355,0.132-0.056c0,1.284,3.322,2.218,7.42,2.218s7.42-0.884,7.42-2.169
			c0-0.298,0.131-0.352,0.131-0.053c0,1.285,3.106,2.221,7.204,2.221s7.204-0.883,7.204-2.169
			C65.139,38.417,65.139,38.028,65.139,38.028z"/>
		<path id="path-4_5_" style="fill:#EDC951;" d="M46.139,22.069v-8h-12v8H46.139z"/>
		<path id="path-5_5_" style="fill:#EDC951;" d="M49.139,14.069v-6h-19v6H49.139z"/>
		<path id="path-6_5_" d="M53.639,60.069h-44c-0.829,0-1.5-0.671-1.5-1.5v-20.5c0-0.829,0.671-1.5,1.5-1.5s1.5,0.671,1.5,1.5v19h41
			v-19c0-0.829,0.671-1.5,1.5-1.5s1.5,0.671,1.5,1.5v20.5C55.139,59.398,54.468,60.069,53.639,60.069z"/>
		<path id="path-7_3_" d="M44.639,54.069h-26c-0.829,0-1.5-0.671-1.5-1.5v-14.5c0-0.829,0.671-1.5,1.5-1.5s1.5,0.671,1.5,1.5v13h23
			v-13c0-0.829,0.671-1.5,1.5-1.5s1.5,0.671,1.5,1.5v14.5C46.139,53.398,45.468,54.069,44.639,54.069z"/>
		<path id="path-8_3_" d="M9.237,39.443c-3.551,0-7.755-0.773-8.904-2.944C0.032,35.931,0,35.444,0,35.259
			c0-0.235,0.055-0.468,0.162-0.678l8.46-16.69c0.256-0.505,0.773-0.822,1.338-0.822h43.15c0.561,0,1.074,0.312,1.332,0.81
			l8.529,16.459c0.11,0.213,0.168,0.45,0.168,0.69v0.687c0,3.404-6.853,3.668-8.954,3.668c-1.489,0-5.368-0.134-7.5-1.443
			c-2.115,1.31-6.013,1.445-7.505,1.445c-1.482,0-5.341-0.135-7.466-1.441c-2.115,1.312-6.014,1.447-7.506,1.447
			c-1.476,0-5.31-0.134-7.439-1.422C14.66,39.306,10.735,39.443,9.237,39.443z M3.179,35.264c0.624,0.427,2.57,1.178,6.058,1.178
			c3.298,0,5.377-0.616,5.941-1.009c0.253-1.864,2.812-1.908,3.088-0.066c0.557,0.398,2.638,1.024,5.942,1.024
			c3.299,0,5.376-0.602,5.942-0.989c0.257-1.854,2.814-1.891,3.088-0.046c0.556,0.4,2.637,1.029,5.942,1.029
			c3.298,0,5.375-0.601,5.941-0.987c0.258-1.851,2.81-1.889,3.087-0.048c0.563,0.402,2.657,1.033,5.977,1.033
			c3.273,0,5.352-0.587,5.954-0.975v-0.014l-7.941-15.325H10.882L3.179,35.264z"/>
		<path id="path-9_3_" d="M42.639,20.069h-12c-0.829,0-1.5-0.671-1.5-1.5v-8c0-0.829,0.671-1.5,1.5-1.5h12
			c0.829,0,1.5,0.671,1.5,1.5v8C44.139,19.399,43.468,20.069,42.639,20.069z M32.139,17.069h9v-5h-9V17.069z"/>
		<path id="path-10_2_" d="M45.639,12.069h-19c-0.829,0-1.5-0.671-1.5-1.5v-6c0-0.829,0.671-1.5,1.5-1.5h19
			c0.829,0,1.5,0.671,1.5,1.5v6C47.139,11.399,46.468,12.069,45.639,12.069z M28.139,9.069h16v-3h-16V9.069z"/>
	</g>
</g>
<g>
</g>
<g>
</g>
<g>
</g>
<g>
</g>
<g>
</g>
<g>
</g>
<g>
</g>
<g>
</g>
<g>
</g>
<g>
</g>
<g>
</g>
<g>
</g>
<g>
</g>
<g>
</g>
<g>
</g>
</svg>
