<?xml version="1.0" encoding="iso-8859-1"?>
<!-- Generator: Adobe Illustrator 19.1.0, SVG Export Plug-In . SVG Version: 6.00 Build 0)  -->
<svg version="1.1" id="Capa_1" xmlns="http://www.w3.org/2000/svg" xmlns:xlink="http://www.w3.org/1999/xlink" x="0px" y="0px"
	 viewBox="0 0 67 67" style="enable-background:new 0 0 67 67;" xml:space="preserve">
<g>
	<g id="group-17svg">
		<path id="path-1_8_" style="fill:#81BDA4;" d="M67,46.828c0,4.418-3.582,8-8,8H15c-4.418,0-8-3.582-8-8v-22c0-4.418,3.582-8,8-8
			h44c4.418,0,8,3.582,8,8V46.828z"/>
		<path id="path-2_8_" style="fill:#EDC951;" d="M53.556,16.852c0,0,0.444,14.501,13.444,13.101V24.78
			c0-4.46-3.668-8.059-8.128-7.999L53.556,16.852z"/>
		<path id="path-3_8_" style="fill:#EDC951;" d="M20.363,55.1c0,0-0.363-14.501-13.363-13.101v5.173c0,4.461,3.627,8.059,8.087,8
			L20.363,55.1z"/>
		<path id="path-4_8_" d="M53.5,52.828h-44c-5.238,0-9.5-4.262-9.5-9.5v-22c0-5.238,4.262-9.5,9.5-9.5h44c5.238,0,9.5,4.262,9.5,9.5
			v22C63,48.566,58.738,52.828,53.5,52.828z M9.5,14.828c-3.584,0-6.5,2.916-6.5,6.5v22c0,3.584,2.916,6.5,6.5,6.5h44
			c3.584,0,6.5-2.916,6.5-6.5v-22c0-3.584-2.916-6.5-6.5-6.5H9.5z"/>
		<path id="path-5_8_" d="M59.785,28.548L59.785,28.548c-10.11,0-12.911-9.6-12.979-14.676c-0.011-0.828,0.651-1.508,1.479-1.52
			l5.321-0.072c5.18,0,9.394,4.262,9.394,9.5v5.173c0,0.767-0.577,1.409-1.34,1.492C61.02,28.514,60.39,28.548,59.785,28.548z
			 M49.931,15.33c0.415,3.171,2.198,10.218,9.853,10.218h0.001c0.071,0,0.143,0,0.215-0.001V21.78c0-3.644-2.809-6.5-6.394-6.5
			L49.931,15.33z"/>
		<path id="path-6_8_" d="M9.603,52.672c-5.295,0-9.603-4.261-9.603-9.5v-5.173c0-0.766,0.577-1.409,1.34-1.491
			c0.639-0.069,1.271-0.104,1.878-0.104c10.104,0,13.18,9.571,13.395,14.632c0.017,0.406-0.131,0.801-0.409,1.095
			c-0.278,0.295-0.665,0.464-1.07,0.469L9.603,52.672z M3,39.406v3.766c0,3.584,2.962,6.5,6.603,6.5l3.836-0.05
			C12.915,46.392,10.888,39.266,3,39.406z"/>
		<path id="path-7_6_" d="M40,42.828H28.5c-0.828,0-1.5-0.671-1.5-1.5v-0.997c0-0.659,0.43-1.24,1.06-1.434
			c2.126-0.653,2.514-1.627,2.514-3.311c0-0.332,0.039-0.642,0.082-0.952c0.046-0.327,0.071-0.521,0.04-0.718
			c-0.006-0.04-0.01-0.081-0.013-0.122l-0.118-1.64c-0.16-0.978-0.248-2.078-0.248-3.105c0-3.932,2.833-6.785,6.738-6.785
			c1.408,0,2.414,0.117,3.387,0.719c0.704,0.436,0.923,1.361,0.487,2.065c-0.436,0.705-1.36,0.922-2.065,0.487
			c-0.231-0.144-0.544-0.272-1.809-0.272c-2.271,0-3.738,1.486-3.738,3.786c0,0.878,0.08,1.855,0.219,2.68
			c0.008,0.047,0.014,0.095,0.017,0.142l0.118,1.654c0.085,0.613,0.014,1.117-0.043,1.525c-0.024,0.175-0.054,0.349-0.054,0.536
			c0,1.289-0.191,2.905-1.378,4.242H40c0.828,0,1.5,0.671,1.5,1.5C41.5,42.157,40.828,42.828,40,42.828z"/>
		<path id="path-8_6_" d="M40,34.828H28c-0.828,0-1.5-0.671-1.5-1.5c0-0.829,0.672-1.5,1.5-1.5h12c0.828,0,1.5,0.671,1.5,1.5
			C41.5,34.157,40.828,34.828,40,34.828z"/>
	</g>
</g>
<g>
</g>
<g>
</g>
<g>
</g>
<g>
</g>
<g>
</g>
<g>
</g>
<g>
</g>
<g>
</g>
<g>
</g>
<g>
</g>
<g>
</g>
<g>
</g>
<g>
</g>
<g>
</g>
<g>
</g>
</svg>
