<?xml version="1.0" encoding="iso-8859-1"?>
<!-- Generator: Adobe Illustrator 19.1.0, SVG Export Plug-In . SVG Version: 6.00 Build 0)  -->
<svg version="1.1" id="Capa_1" xmlns="http://www.w3.org/2000/svg" xmlns:xlink="http://www.w3.org/1999/xlink" x="0px" y="0px"
	 viewBox="0 0 67.5 67.5" style="enable-background:new 0 0 67.5 67.5;" xml:space="preserve">
<g>
	<g id="group-18svg">
		<path id="path-1_9_" style="fill:#99746A;" d="M7.5,46.914c0,7.701,13.431,13.943,30,13.943c16.568,0,30-6.242,30-13.943l0,0"/>
		<path id="path-2_9_" style="fill:#FF917B;" d="M67.5,29.786c0,10.848-13.432,19.642-30,19.642c-16.569,0-30-8.794-30-19.642
			c0-10.849,13.431-19.643,30-19.643C54.068,10.143,67.5,18.937,67.5,29.786z"/>
		<path id="path-3_9_" d="M31.5,48.928C14.131,48.928,0,39.444,0,27.786C0,16.127,14.131,6.643,31.5,6.643S63,16.127,63,27.786
			C63,39.444,48.869,48.928,31.5,48.928z M31.5,9.643C15.785,9.643,3,17.782,3,27.786c0,10.003,12.785,18.142,28.5,18.142
			S60,37.789,60,27.786C60,17.782,47.215,9.643,31.5,9.643z"/>
		<path id="path-4_9_" d="M31.5,60.357C13.837,60.357,0,53.574,0,44.914c0-0.828,0.672-1.5,1.5-1.5s1.5,0.672,1.5,1.5
			c0,6.745,13.051,12.443,28.5,12.443c15.448,0,28.5-5.698,28.5-12.443c0-0.828,0.672-1.5,1.5-1.5c0.828,0,1.5,0.672,1.5,1.5
			C63,53.574,49.163,60.357,31.5,60.357z"/>
		<path id="path-5_9_" d="M33.356,38.269h-7.399c-0.828,0-1.5-0.671-1.5-1.5c0-0.829,0.672-1.5,1.5-1.5h7.399
			c0.901,0,1.601-1.129,1.601-2.101c0-0.92-0.644-1.899-1.601-1.899h-3.713c-2.628,0-4.686-1.993-4.686-4.537v-0.635
			c0-2.662,2.102-4.828,4.686-4.828h7.314c0.828,0,1.5,0.671,1.5,1.5s-0.672,1.5-1.5,1.5h-7.314c-0.914,0-1.686,0.837-1.686,1.828
			v0.635c0,0.905,0.693,1.537,1.686,1.537h3.713c2.537,0,4.601,2.195,4.601,4.893C37.957,35.631,36.108,38.269,33.356,38.269z"/>
		<path id="path-6_9_" d="M31.457,41.769c-0.828,0-1.5-0.671-1.5-1.5v-21c0-0.829,0.672-1.5,1.5-1.5s1.5,0.671,1.5,1.5v21
			C32.957,41.098,32.285,41.769,31.457,41.769z"/>
	</g>
</g>
<g>
</g>
<g>
</g>
<g>
</g>
<g>
</g>
<g>
</g>
<g>
</g>
<g>
</g>
<g>
</g>
<g>
</g>
<g>
</g>
<g>
</g>
<g>
</g>
<g>
</g>
<g>
</g>
<g>
</g>
</svg>
