<?xml version="1.0" encoding="iso-8859-1"?>
<!-- Generator: Adobe Illustrator 19.1.0, SVG Export Plug-In . SVG Version: 6.00 Build 0)  -->
<svg version="1.1" id="Capa_1" xmlns="http://www.w3.org/2000/svg" xmlns:xlink="http://www.w3.org/1999/xlink" x="0px" y="0px"
	 viewBox="0 0 68.5 68.5" style="enable-background:new 0 0 68.5 68.5;" xml:space="preserve">
<g>
	<g id="group-19svg">
		<path id="path-1_10_" style="fill:#99746A;" d="M8.5,47.414c0,7.701,13.431,13.943,30,13.943c16.568,0,30-6.242,30-13.943l0,0"/>
		<path id="path-2_10_" style="fill:#FF917B;" d="M68.5,30.286c0,10.848-13.432,19.642-30,19.642c-16.569,0-30-8.794-30-19.642
			c0-10.849,13.431-19.643,30-19.643C55.068,10.643,68.5,19.437,68.5,30.286z"/>
		<path id="path-3_10_" d="M31.5,49.428C14.131,49.428,0,39.944,0,28.286C0,16.627,14.131,7.143,31.5,7.143S63,16.627,63,28.286
			C63,39.944,48.869,49.428,31.5,49.428z M31.5,10.143C15.785,10.143,3,18.282,3,28.286c0,10.003,12.785,18.142,28.5,18.142
			S60,38.289,60,28.286C60,18.282,47.215,10.143,31.5,10.143z"/>
		<path id="path-4_10_" d="M31.5,60.857C13.837,60.857,0,54.074,0,45.414c0-0.828,0.672-1.5,1.5-1.5s1.5,0.672,1.5,1.5
			c0,6.745,13.052,12.443,28.5,12.443S60,52.159,60,45.414c0-0.828,0.672-1.5,1.5-1.5c0.828,0,1.5,0.672,1.5,1.5
			C63,54.074,49.163,60.857,31.5,60.857z"/>
		<path id="path-5_10_" d="M33.694,39.294c-6.303,0-11.432-5.129-11.432-11.433s5.129-11.433,11.432-11.433
			c1.745,0,3.422,0.383,4.982,1.14c0.745,0.361,1.056,1.259,0.695,2.004c-0.36,0.746-1.259,1.056-2.004,0.696
			c-1.148-0.557-2.385-0.84-3.673-0.84c-4.649,0-8.432,3.783-8.432,8.433c0,4.651,3.783,8.433,8.432,8.433
			c1.241,0,2.434-0.262,3.547-0.779c0.749-0.348,1.643-0.023,1.992,0.729c0.349,0.751,0.024,1.643-0.728,1.992
			C36.993,38.938,35.374,39.294,33.694,39.294z"/>
		<path id="path-6_10_" d="M38.128,24.769h-18c-0.553,0-1-0.448-1-1s0.447-1,1-1h18c0.553,0,1,0.448,1,1
			S38.681,24.769,38.128,24.769z"/>
		<path id="path-7_7_" d="M38.128,30.769h-18c-0.553,0-1-0.448-1-1s0.447-1,1-1h18c0.553,0,1,0.448,1,1S38.681,30.769,38.128,30.769
			z"/>
	</g>
</g>
<g>
</g>
<g>
</g>
<g>
</g>
<g>
</g>
<g>
</g>
<g>
</g>
<g>
</g>
<g>
</g>
<g>
</g>
<g>
</g>
<g>
</g>
<g>
</g>
<g>
</g>
<g>
</g>
<g>
</g>
</svg>
