<?xml version="1.0" encoding="iso-8859-1"?>
<!-- Generator: Adobe Illustrator 19.1.0, SVG Export Plug-In . SVG Version: 6.00 Build 0)  -->
<svg version="1.1" id="Capa_1" xmlns="http://www.w3.org/2000/svg" xmlns:xlink="http://www.w3.org/1999/xlink" x="0px" y="0px"
	 viewBox="0 0 67.231 67.231" style="enable-background:new 0 0 67.231 67.231;" xml:space="preserve">
<g>
	<g id="group-1svg">
		<path id="path-1" style="fill:#8B71B5;" d="M63.822,55.639h3v-10h-45.68l1.92,10h3.76l0,0"/>
		<path id="path-2" style="fill:#E56A77;" d="M21.142,45.639h36.487l9.602-20h-50.99L21.142,45.639z"/>
		<path id="path-3" style="fill:#EDC951;" d="M62.142,56.113c0,3.182-2.579,5.761-5.761,5.761c-3.183,0-5.762-2.579-5.762-5.761
			s2.579-5.761,5.762-5.761C59.563,50.352,62.142,52.931,62.142,56.113z"/>
		<path id="path-4" style="fill:#EDC951;" d="M39.049,56.113c0,3.182-2.579,5.761-5.761,5.761c-3.181,0-5.761-2.579-5.761-5.761
			s2.58-5.761,5.761-5.761C36.47,50.352,39.049,52.931,39.049,56.113z"/>
		<path id="path-5" style="fill:#53ECF4;" d="M31.278,17.889l6.679-10.425c0.977-1.463,3.117-1.703,4.133-0.267l7.071,10.743
			c1.175,1.661-0.012,4.699-2.048,4.699h-2.291v10.736c0,0.55-0.418,1.264-0.968,1.264h-6c-0.552,0-1.032-0.711-1.032-1.264V22.639
			h-3.459C31.36,22.639,30.165,19.556,31.278,17.889z"/>
		<path id="path-6" d="M51.629,45.639H15.142c-0.692,0-1.292-0.472-1.457-1.143l-4.901-20c-0.109-0.448-0.007-0.92,0.278-1.283
			c0.284-0.362,0.718-0.574,1.179-0.574h11.581c0.829,0,1.5,0.671,1.5,1.5s-0.671,1.5-1.5,1.5h-9.668l4.165,17h34.367l8.161-17
			H48.822c-0.828,0-1.5-0.671-1.5-1.5s0.672-1.5,1.5-1.5h12.409c0.515,0,0.995,0.265,1.269,0.701
			c0.275,0.437,0.306,0.983,0.083,1.448l-9.601,20C52.732,45.308,52.206,45.639,51.629,45.639z"/>
		<path id="path-7" d="M61.322,56.639h-3.5c-0.828,0-1.5-0.671-1.5-1.5s0.672-1.5,1.5-1.5h2v-8H16.926l1.396,8h2.5
			c0.829,0,1.5,0.671,1.5,1.5s-0.671,1.5-1.5,1.5h-3.76c-0.729,0-1.353-0.524-1.478-1.242l-1.92-11
			c-0.076-0.437,0.044-0.884,0.329-1.223c0.286-0.339,0.705-0.535,1.149-0.535h46.18c0.829,0,1.5,0.671,1.5,1.5v11
			C62.822,55.968,62.151,56.639,61.322,56.639z"/>
		<path id="path-8" d="M43.822,56.639h-10c-0.828,0-1.5-0.671-1.5-1.5s0.672-1.5,1.5-1.5h10c0.829,0,1.5,0.671,1.5,1.5
			S44.651,56.639,43.822,56.639z"/>
		<path id="path-9" d="M50.38,62.586c-4.004,0-7.261-3.257-7.261-7.261c0-4.003,3.257-7.261,7.261-7.261s7.262,3.258,7.262,7.261
			C57.642,59.329,54.384,62.586,50.38,62.586z M50.38,51.064c-2.349,0-4.261,1.911-4.261,4.261c0,2.35,1.912,4.261,4.261,4.261
			c2.35,0,4.262-1.911,4.262-4.261C54.642,52.975,52.73,51.064,50.38,51.064z"/>
		<path id="path-10" d="M27.288,62.586c-4.004,0-7.261-3.257-7.261-7.261c0-4.003,3.257-7.261,7.261-7.261s7.261,3.258,7.261,7.261
			C34.549,59.329,31.292,62.586,27.288,62.586z M27.288,51.064c-2.349,0-4.261,1.911-4.261,4.261c0,2.35,1.912,4.261,4.261,4.261
			c2.35,0,4.261-1.911,4.261-4.261C31.549,52.975,29.638,51.064,27.288,51.064z"/>
		<path id="path-11" d="M17.061,55.865c-0.676,0-1.29-0.46-1.457-1.146L6.002,15.228c-0.027-0.116-0.042-0.235-0.042-0.355
			c0-0.665-0.675-1.226-1.472-1.226C3.654,13.647,3,14.337,3,15.218c0,0.542,0.266,1.042,0.712,1.337
			c0.69,0.458,0.878,1.389,0.42,2.08c-0.458,0.69-1.388,0.878-2.08,0.42C0.768,18.201,0,16.767,0,15.218
			c0-2.521,2.013-4.571,4.488-4.571c2.395,0,4.356,1.788,4.467,4.026L18.52,54.01c0.195,0.805-0.299,1.616-1.104,1.812
			C17.297,55.851,17.178,55.865,17.061,55.865z"/>
		<path id="path-12" d="M39.352,35.639h-6c-1.49,0-2.53-0.931-2.53-2.264v-9.736h-1.961c-1.411,0-2.692-0.824-3.43-2.204
			c-0.809-1.513-0.771-3.33,0.097-4.629l6.668-10.283c0.789-1.182,2.081-1.878,3.465-1.878c1.273,0,2.421,0.592,3.151,1.623
			l7.092,10.555c0.884,1.25,0.963,3.054,0.181,4.567c-0.729,1.408-2.027,2.249-3.473,2.249h-0.79v9.736
			C41.822,34.708,40.807,35.639,39.352,35.639z M33.822,32.636l5,0.003v-12h3.79c0.449,0,0.732-0.48,0.808-0.628
			c0.265-0.512,0.271-1.122,0.014-1.485L36.342,7.971c-0.187-0.265-0.476-0.326-0.681-0.326c-0.294,0-0.7,0.138-0.96,0.527
			l-6.667,10.284c-0.26,0.39-0.238,1.041,0.043,1.565c0.077,0.145,0.363,0.618,0.784,0.618h4.961V32.636z"/>
	</g>
</g>
<g>
</g>
<g>
</g>
<g>
</g>
<g>
</g>
<g>
</g>
<g>
</g>
<g>
</g>
<g>
</g>
<g>
</g>
<g>
</g>
<g>
</g>
<g>
</g>
<g>
</g>
<g>
</g>
<g>
</g>
</svg>
