<?xml version="1.0" encoding="iso-8859-1"?>
<!-- Generator: Adobe Illustrator 19.1.0, SVG Export Plug-In . SVG Version: 6.00 Build 0)  -->
<svg version="1.1" id="Capa_1" xmlns="http://www.w3.org/2000/svg" xmlns:xlink="http://www.w3.org/1999/xlink" x="0px" y="0px"
	 viewBox="0 0 68.5 68.5" style="enable-background:new 0 0 68.5 68.5;" xml:space="preserve">
<g>
	<g id="group-20svg">
		<path id="path-1_12_" style="fill:#99746A;" d="M8.5,47.414c0,7.701,13.431,13.943,30,13.943c16.568,0,30-6.242,30-13.943l0,0"/>
		<path id="path-2_12_" style="fill:#FF917B;" d="M68.5,30.286c0,10.848-13.432,19.642-30,19.642c-16.569,0-30-8.794-30-19.642
			c0-10.849,13.431-19.643,30-19.643C55.068,10.643,68.5,19.437,68.5,30.286z"/>
		<path id="path-3_12_" d="M31.5,49.428C14.131,49.428,0,39.944,0,28.286C0,16.627,14.131,7.143,31.5,7.143S63,16.627,63,28.286
			C63,39.944,48.869,49.428,31.5,49.428z M31.5,10.143C15.785,10.143,3,18.282,3,28.286c0,10.003,12.785,18.142,28.5,18.142
			S60,38.289,60,28.286C60,18.282,47.215,10.143,31.5,10.143z"/>
		<path id="path-4_12_" d="M31.5,60.857C13.837,60.857,0,54.074,0,45.414c0-0.828,0.672-1.5,1.5-1.5s1.5,0.672,1.5,1.5
			c0,6.745,13.052,12.443,28.5,12.443S60,52.159,60,45.414c0-0.828,0.672-1.5,1.5-1.5c0.828,0,1.5,0.672,1.5,1.5
			C63,54.074,49.163,60.857,31.5,60.857z"/>
		<path id="path-5_12_" d="M37.128,40.769h-13.5c-0.828,0-1.5-0.671-1.5-1.5v-2.147c0-0.548,0.402-1.052,0.883-1.315
			c1.5-0.823,3.117-2.483,3.117-4.334V31.16c0-0.62-0.1-1.109-0.193-1.719l-0.32-2.072c-0.161-0.954-0.381-2.29-0.381-3.678
			c0-4.516,3.228-7.793,7.693-7.793c2.143,0,3.552,0.875,4.23,1.295c0.705,0.436,0.919,1.36,0.483,2.065
			c-0.436,0.704-1.361,0.922-2.066,0.486c-0.545-0.337-1.368-0.846-2.659-0.846c-2.858,0-4.707,1.882-4.707,4.793
			c0,1.166,0.172,2.344,0.322,3.238l0.374,2.091c0.126,0.806,0.224,1.491,0.224,2.152v0.301c0,2.755-1.937,4.97-3.737,6.296h11.737
			c0.828,0,1.5,0.671,1.5,1.5C38.628,40.098,37.956,40.769,37.128,40.769z"/>
		<path id="path-6_12_" d="M37.128,30.769h-15c-0.828,0-1.5-0.671-1.5-1.5s0.672-1.5,1.5-1.5h15c0.828,0,1.5,0.671,1.5,1.5
			S37.956,30.769,37.128,30.769z"/>
	</g>
</g>
<g>
</g>
<g>
</g>
<g>
</g>
<g>
</g>
<g>
</g>
<g>
</g>
<g>
</g>
<g>
</g>
<g>
</g>
<g>
</g>
<g>
</g>
<g>
</g>
<g>
</g>
<g>
</g>
<g>
</g>
</svg>
