<?xml version="1.0" encoding="iso-8859-1"?>
<!-- Generator: Adobe Illustrator 19.1.0, SVG Export Plug-In . SVG Version: 6.00 Build 0)  -->
<svg version="1.1" id="Capa_1" xmlns="http://www.w3.org/2000/svg" xmlns:xlink="http://www.w3.org/1999/xlink" x="0px" y="0px"
	 viewBox="0 0 68.502 68.502" style="enable-background:new 0 0 68.502 68.502;" xml:space="preserve">
<g>
	<g id="group-21svg">
		<path id="path-1_13_" style="fill:#EDC951;" d="M50.866,65.251H26.137c-4.745,0-8.939-3.24-10.354-7.769l-6.78-21.421
			c-2.183-6.986,3.036-13.81,10.354-13.81h38.289c7.319,0,12.537,6.746,10.355,13.731L61.22,57.658
			C59.805,62.187,55.611,65.251,50.866,65.251z"/>
		<path id="path-2_13_" style="fill:#E56A77;" d="M54.441,61.596l-5.475-12.294l-5.372,2.434l-1.135-0.963v-9.522h-14v6.522
			l5.159,1.105l-14.159,2.503v10.87h12.922l7.459-0.218l0.322,0.729L54.441,61.596z"/>
		<path id="path-3_13_" d="M43.866,63.251H19.137c-5.448,0-10.184-3.445-11.786-8.571L0.572,33.136
			c-1.175-3.76-0.521-7.72,1.793-10.867c2.345-3.189,5.986-5.018,9.992-5.018h38.289c3.994,0,7.632,1.831,9.979,5.023
			c2.326,3.163,2.984,7.138,1.807,10.906l-6.781,21.554C54.059,59.827,49.323,63.251,43.866,63.251z M12.357,20.251
			c-3.041,0-5.802,1.383-7.575,3.795c-1.742,2.37-2.233,5.356-1.348,8.192l6.78,21.544c1.21,3.87,4.795,6.469,8.923,6.469h24.729
			c4.138,0,7.724-2.578,8.923-6.415l6.781-21.554c0.889-2.844,0.393-5.845-1.362-8.231c-1.776-2.415-4.532-3.8-7.562-3.8H12.357z"/>
		<path id="path-4_13_" d="M46.959,19.751c-0.828,0-1.5-0.671-1.5-1.5v-5.5c0-3.584-2.916-6.5-6.5-6.5h-15
			c-3.584,0-6.5,2.916-6.5,6.5v5.5c0,0.829-0.672,1.5-1.5,1.5s-1.5-0.671-1.5-1.5v-5.5c0-5.238,4.261-9.5,9.5-9.5h15
			c5.238,0,9.5,4.262,9.5,9.5v5.5C48.459,19.08,47.787,19.751,46.959,19.751z"/>
		<path id="path-5_13_" d="M36.164,62.268c-0.573,0-1.121-0.331-1.37-0.889l-3.491-7.805c-0.336-0.75-0.004-1.631,0.743-1.974
			l12.293-5.661c0.363-0.167,0.781-0.182,1.155-0.041c0.376,0.142,0.679,0.428,0.842,0.794l5.475,12.294
			c0.337,0.757-0.003,1.644-0.76,1.981c-0.756,0.336-1.642-0.004-1.98-0.76L44.214,49.3l-9.567,4.404l2.885,6.451
			c0.338,0.756-0.001,1.643-0.757,1.982C36.576,62.226,36.368,62.268,36.164,62.268z"/>
		<path id="path-6_13_" d="M28.38,62.251H15.959c-0.828,0-1.5-0.671-1.5-1.5V49.38c0-0.735,0.532-1.361,1.258-1.48l16.354-2.679
			c0.511-0.083,1.02,0.098,1.359,0.479c0.342,0.382,0.466,0.912,0.328,1.405l-3.934,14.05C29.642,61.803,29.052,62.251,28.38,62.251
			z M17.459,59.251h9.783l2.993-10.689l-12.776,2.093V59.251z"/>
		<path id="path-7_9_" d="M38.959,50.751c-0.828,0-1.5-0.671-1.5-1.5v-8h-11v5c0,0.829-0.672,1.5-1.5,1.5
			c-0.828,0-1.5-0.671-1.5-1.5v-6.5c0-0.829,0.672-1.5,1.5-1.5h14c0.828,0,1.5,0.671,1.5,1.5v9.5
			C40.459,50.08,39.787,50.751,38.959,50.751z"/>
	</g>
</g>
<g>
</g>
<g>
</g>
<g>
</g>
<g>
</g>
<g>
</g>
<g>
</g>
<g>
</g>
<g>
</g>
<g>
</g>
<g>
</g>
<g>
</g>
<g>
</g>
<g>
</g>
<g>
</g>
<g>
</g>
</svg>
