<?xml version="1.0" encoding="iso-8859-1"?>
<!-- Generator: Adobe Illustrator 19.1.0, SVG Export Plug-In . SVG Version: 6.00 Build 0)  -->
<svg version="1.1" id="Capa_1" xmlns="http://www.w3.org/2000/svg" xmlns:xlink="http://www.w3.org/1999/xlink" x="0px" y="0px"
	 viewBox="0 0 66.502 66.502" style="enable-background:new 0 0 66.502 66.502;" xml:space="preserve">
<g>
	<g id="group-22svg">
		<path id="path-1_14_" style="fill:#EDC951;" d="M48.866,64.251H24.137c-4.744,0-8.939-3.24-10.354-7.769l-6.78-21.421
			c-2.183-6.986,3.035-13.81,10.353-13.81h38.289c7.319,0,12.538,6.746,10.355,13.731l-6.78,21.676
			C57.805,61.187,53.61,64.251,48.866,64.251z"/>
		<path id="path-2_14_" d="M43.866,62.251H19.137c-5.447,0-10.184-3.445-11.786-8.571L0.572,32.136
			c-1.176-3.76-0.521-7.719,1.792-10.867c2.345-3.189,5.987-5.018,9.992-5.018h38.289c3.995,0,7.632,1.831,9.979,5.023
			c2.326,3.163,2.984,7.138,1.808,10.906L55.65,53.734C54.059,58.827,49.323,62.251,43.866,62.251z M12.356,19.251
			c-3.041,0-5.801,1.383-7.575,3.795c-1.742,2.37-2.233,5.356-1.346,8.192l6.778,21.544c1.21,3.87,4.796,6.469,8.924,6.469h24.729
			c4.138,0,7.723-2.578,8.922-6.415l6.781-21.554c0.889-2.844,0.393-5.845-1.362-8.231c-1.775-2.415-4.531-3.8-7.562-3.8H12.356z"/>
		<path id="path-3_14_" d="M46.625,18.751c-0.828,0-1.5-0.671-1.5-1.5v-5.5c0-3.584-2.916-6.5-6.5-6.5h-15
			c-3.584,0-6.5,2.916-6.5,6.5v5.5c0,0.829-0.672,1.5-1.5,1.5c-0.828,0-1.5-0.671-1.5-1.5v-5.5c0-5.238,4.262-9.5,9.5-9.5h15
			c5.238,0,9.5,4.262,9.5,9.5v5.5C48.125,18.08,47.453,18.751,46.625,18.751z"/>
		<path id="path-4_14_" d="M31.703,45.251c-0.015,0-0.03,0-0.045,0c-0.414,0-0.804-0.362-1.078-0.671l-3.3-3.809
			c-0.549-0.62-0.491-1.61,0.129-2.159c0.62-0.55,1.568-0.512,2.117,0.107l2.244,2.522l6.323-6.328
			c0.586-0.586,1.535-0.589,2.121-0.003c0.586,0.586,0.586,1.534,0,2.12l-7.45,7.616C32.482,44.928,32.101,45.251,31.703,45.251z"/>
	</g>
</g>
<g>
</g>
<g>
</g>
<g>
</g>
<g>
</g>
<g>
</g>
<g>
</g>
<g>
</g>
<g>
</g>
<g>
</g>
<g>
</g>
<g>
</g>
<g>
</g>
<g>
</g>
<g>
</g>
<g>
</g>
</svg>
