<?xml version="1.0" encoding="iso-8859-1"?>
<!-- Generator: Adobe Illustrator 19.1.0, SVG Export Plug-In . SVG Version: 6.00 Build 0)  -->
<svg version="1.1" id="Capa_1" xmlns="http://www.w3.org/2000/svg" xmlns:xlink="http://www.w3.org/1999/xlink" x="0px" y="0px"
	 viewBox="0 0 66.502 66.502" style="enable-background:new 0 0 66.502 66.502;" xml:space="preserve">
<g>
	<g id="group-24svg">
		<path id="path-1_16_" style="fill:#EDC951;" d="M48.866,64.251H24.137c-4.745,0-8.939-3.24-10.354-7.769L7.004,35.061
			c-2.184-6.986,3.035-13.81,10.353-13.81h38.289c7.319,0,12.537,6.746,10.355,13.731L59.22,56.658
			C57.805,61.187,53.611,64.251,48.866,64.251z"/>
		<path id="path-2_16_" d="M43.867,62.251h-24.73c-5.448,0-10.184-3.445-11.786-8.571L0.573,32.136
			c-1.176-3.76-0.522-7.719,1.792-10.867c2.345-3.189,5.986-5.018,9.992-5.018h38.289c3.994,0,7.632,1.831,9.979,5.023
			c2.326,3.163,2.984,7.138,1.807,10.906l-6.781,21.554C54.059,58.827,49.324,62.251,43.867,62.251z M12.357,19.251
			c-3.041,0-5.802,1.383-7.575,3.795c-1.742,2.37-2.233,5.356-1.347,8.192l6.779,21.544c1.21,3.87,4.795,6.469,8.923,6.469h24.73
			c4.138,0,7.723-2.578,8.922-6.415l6.781-21.554c0.889-2.844,0.393-5.845-1.362-8.231c-1.776-2.415-4.532-3.8-7.562-3.8H12.357z"/>
		<path id="path-3_16_" d="M46.583,18.751c-0.828,0-1.5-0.671-1.5-1.5v-5.5c0-3.584-2.916-6.5-6.5-6.5h-15
			c-3.584,0-6.5,2.916-6.5,6.5v5.5c0,0.829-0.672,1.5-1.5,1.5c-0.828,0-1.5-0.671-1.5-1.5v-5.5c0-5.238,4.261-9.5,9.5-9.5h15
			c5.238,0,9.5,4.262,9.5,9.5v5.5C48.083,18.08,47.411,18.751,46.583,18.751z"/>
		<path id="path-4_15_" d="M32.522,37.251c0.492,0,0.914-0.045,1.27-0.333c0.354-0.288,0.531-0.652,0.531-1.19
			c0-0.412-0.141-0.739-0.424-1.036c-0.282-0.295-0.664-0.431-1.144-0.431c-0.326,0-0.594,0.051-0.804,0.141
			c-0.212,0.091-0.378,0.213-0.501,0.364c-0.122,0.149-0.239,0.342-0.348,0.578c-0.109,0.233-0.209,0.456-0.301,0.664
			c-0.052,0.112-0.148,0.201-0.288,0.265c-0.137,0.064-0.297,0.097-0.479,0.097c-0.213,0-0.41-0.087-0.588-0.261
			c-0.18-0.173-0.269-0.404-0.269-0.693c0-0.276,0.084-0.569,0.252-0.875c0.168-0.307,0.413-0.6,0.737-0.876
			c0.322-0.279,0.723-0.501,1.204-0.668c0.48-0.169,1.016-0.254,1.608-0.254c0.519,0,0.99,0.071,1.417,0.213
			c0.428,0.142,0.798,0.345,1.113,0.613c0.315,0.265,0.552,0.576,0.712,0.928c0.16,0.352,0.24,0.73,0.24,1.137
			c0,0.533-0.116,0.99-0.348,1.371c-0.231,0.383-0.564,0.755-0.996,1.117c0.416,0.224,0.766,0.48,1.053,0.768
			c0.284,0.288,0.499,0.608,0.643,0.958c0.145,0.347,0.216,0.725,0.216,1.132c0,0.484-0.097,0.954-0.291,1.408
			c-0.195,0.453-0.481,0.858-0.861,1.213c-0.378,0.354-0.828,0.633-1.348,0.832c-0.521,0.201-1.096,0.299-1.726,0.299
			c-0.639,0-1.212-0.114-1.72-0.343c-0.507-0.231-0.924-0.516-1.252-0.86c-0.328-0.345-0.576-0.701-0.744-1.07
			c-0.168-0.368-0.253-0.672-0.253-0.912c0-0.309,0.1-0.558,0.301-0.748c0.2-0.19,0.449-0.283,0.748-0.283
			c0.149,0,0.293,0.043,0.431,0.132c0.14,0.087,0.231,0.192,0.273,0.316c0.277,0.741,0.575,1.292,0.892,1.653
			c0.318,0.359,0.764,0.54,1.34,0.54c0.332,0,0.649-0.083,0.957-0.245c0.307-0.162,0.561-0.405,0.761-0.725s0.3-0.69,0.3-1.111
			c0-0.624-0.171-1.114-0.513-1.468c-0.341-0.357-0.816-0.533-1.425-0.533c-0.106,0-0.271,0.009-0.496,0.032
			c-0.224,0.02-0.368,0.032-0.432,0.032c-0.293,0-0.52-0.073-0.68-0.22c-0.16-0.148-0.24-0.352-0.24-0.612
			c0-0.256,0.096-0.564,0.288-0.719c0.192-0.158,0.478-0.337,0.856-0.337H32.522z"/>
	</g>
</g>
<g>
</g>
<g>
</g>
<g>
</g>
<g>
</g>
<g>
</g>
<g>
</g>
<g>
</g>
<g>
</g>
<g>
</g>
<g>
</g>
<g>
</g>
<g>
</g>
<g>
</g>
<g>
</g>
<g>
</g>
</svg>
