<?xml version="1.0" encoding="iso-8859-1"?>
<!-- Generator: Adobe Illustrator 19.1.0, SVG Export Plug-In . SVG Version: 6.00 Build 0)  -->
<svg version="1.1" id="Capa_1" xmlns="http://www.w3.org/2000/svg" xmlns:xlink="http://www.w3.org/1999/xlink" x="0px" y="0px"
	 viewBox="0 0 66.501 66.501" style="enable-background:new 0 0 66.501 66.501;" xml:space="preserve">
<g>
	<g id="group-26svg">
		<path id="path-1_18_" style="fill:#EDC951;" d="M48.866,64.251H24.137c-4.745,0-8.939-3.24-10.354-7.769l-6.78-21.421
			c-2.183-6.986,3.036-13.81,10.354-13.81h38.289c7.318,0,12.537,6.746,10.354,13.731l-6.78,21.676
			C57.805,61.187,53.611,64.251,48.866,64.251z"/>
		<path id="path-2_18_" d="M43.866,62.251H19.137c-5.447,0-10.183-3.445-11.786-8.571L0.572,32.136
			c-1.175-3.76-0.521-7.719,1.793-10.867c2.345-3.189,5.986-5.018,9.992-5.018h38.289c3.995,0,7.632,1.831,9.979,5.023
			c2.325,3.164,2.984,7.139,1.807,10.906l-6.781,21.554C54.06,58.827,49.323,62.251,43.866,62.251z M12.357,19.251
			c-3.041,0-5.802,1.383-7.575,3.795c-1.742,2.37-2.234,5.356-1.347,8.192l6.778,21.544c1.21,3.87,4.796,6.469,8.924,6.469h24.729
			c4.138,0,7.723-2.578,8.923-6.415l6.78-21.554c0.889-2.844,0.393-5.845-1.361-8.231c-1.776-2.415-4.532-3.8-7.562-3.8H12.357z"/>
		<path id="path-3_18_" d="M46.63,18.751c-0.829,0-1.5-0.671-1.5-1.5v-5.5c0-3.584-2.916-6.5-6.5-6.5h-15
			c-3.584,0-6.5,2.916-6.5,6.5v5.5c0,0.829-0.671,1.5-1.5,1.5c-0.829,0-1.5-0.671-1.5-1.5v-5.5c0-5.238,4.262-9.5,9.5-9.5h15
			c5.238,0,9.5,4.262,9.5,9.5v5.5C48.13,18.08,47.459,18.751,46.63,18.751z"/>
		<path id="path-4_17_" d="M31.63,45.751c-0.829,0-1.5-0.671-1.5-1.5v-11c0-0.829,0.671-1.5,1.5-1.5c0.829,0,1.5,0.671,1.5,1.5v11
			C33.13,45.08,32.459,45.751,31.63,45.751z"/>
		<path id="path-5_14_" d="M37.13,40.251h-11c-0.829,0-1.5-0.671-1.5-1.5s0.671-1.5,1.5-1.5h11c0.829,0,1.5,0.671,1.5,1.5
			S37.959,40.251,37.13,40.251z"/>
	</g>
</g>
<g>
</g>
<g>
</g>
<g>
</g>
<g>
</g>
<g>
</g>
<g>
</g>
<g>
</g>
<g>
</g>
<g>
</g>
<g>
</g>
<g>
</g>
<g>
</g>
<g>
</g>
<g>
</g>
<g>
</g>
</svg>
