<?xml version="1.0" encoding="iso-8859-1"?>
<!-- Generator: Adobe Illustrator 19.1.0, SVG Export Plug-In . SVG Version: 6.00 Build 0)  -->
<svg version="1.1" id="Capa_1" xmlns="http://www.w3.org/2000/svg" xmlns:xlink="http://www.w3.org/1999/xlink" x="0px" y="0px"
	 viewBox="0 0 62.545 62.545" style="enable-background:new 0 0 62.545 62.545;" xml:space="preserve">
<g>
	<g id="group-27svg">
		<path id="path-1_19_" style="fill:#E56A77;" d="M35.076,33.022c0,8.168-6.621,14.788-14.788,14.788S5.5,41.19,5.5,33.022
			c0-8.167,6.621-14.787,14.788-14.787S35.076,24.855,35.076,33.022z"/>
		<path id="path-2_19_" d="M16.288,47.31C7.307,47.31,0,40.004,0,31.022c0-8.981,7.307-16.288,16.288-16.288
			c8.982,0,16.288,7.307,16.288,16.288C32.576,40.004,25.27,47.31,16.288,47.31z M16.288,17.734C8.961,17.734,3,23.696,3,31.022
			C3,38.349,8.961,44.31,16.288,44.31c7.328,0,13.288-5.961,13.288-13.288C29.576,23.696,23.616,17.734,16.288,17.734z"/>
		<path id="path-3_19_" d="M61.045,31.75h-29c-0.828,0-1.5-0.671-1.5-1.5c0-0.828,0.672-1.5,1.5-1.5h29c0.829,0,1.5,0.672,1.5,1.5
			C62.545,31.08,61.874,31.75,61.045,31.75z"/>
		<path id="path-4_18_" d="M59.545,39.25c-0.828,0-1.5-0.671-1.5-1.5v-7c0-0.828,0.672-1.5,1.5-1.5c0.829,0,1.5,0.672,1.5,1.5v7
			C61.045,38.579,60.374,39.25,59.545,39.25z"/>
	</g>
</g>
<g>
</g>
<g>
</g>
<g>
</g>
<g>
</g>
<g>
</g>
<g>
</g>
<g>
</g>
<g>
</g>
<g>
</g>
<g>
</g>
<g>
</g>
<g>
</g>
<g>
</g>
<g>
</g>
<g>
</g>
</svg>
