<?xml version="1.0" encoding="iso-8859-1"?>
<!-- Generator: Adobe Illustrator 19.1.0, SVG Export Plug-In . SVG Version: 6.00 Build 0)  -->
<svg version="1.1" id="Capa_1" xmlns="http://www.w3.org/2000/svg" xmlns:xlink="http://www.w3.org/1999/xlink" x="0px" y="0px"
	 viewBox="0 0 64.737 64.737" style="enable-background:new 0 0 64.737 64.737;" xml:space="preserve">
<g>
	<g id="group-28svg">
		<path id="path-1_20_" style="fill:#53ECF4;" d="M59.604,34.737h-1c-2.2,0-3.735,1.582-3.735,3.782v-4
			c0-2.209-2.056-3.782-4.265-3.782h-2c-2.2,0-3.735,1.582-3.735,3.782v-7c0-2.209-2.056-3.782-4.265-3.782h-1
			c-2.2,0-3.735,1.582-3.735,3.782V12.142c0-2.501-1.245-4.246-4.323-4.246s-4.677,1.745-4.677,4.246v32.377v10.218H10.604
			c-2.209,0-3.735,1.573-3.735,3.782v2c0,2.2,1.535,4.218,3.735,4.218h16h28.061c5.323,0,9.204-4.593,9.204-9.916V44.519v-6
			C63.869,36.319,61.805,34.737,59.604,34.737z"/>
		<path id="path-2_20_" d="M50.665,62.737H6.604c-3.162,0-5.735-2.341-5.735-5.218v-2c0-3.026,2.734-5.782,5.735-5.782h14.265V9.141
			c0-3.49,2.424-5.745,6.177-5.745c3.646,0,5.823,2.148,5.823,5.745v10.371c0.829-0.489,1.768-0.775,2.735-0.775h1
			c2.903,0,5.265,2.594,5.265,5.782v1.993c0.829-0.489,1.768-0.775,2.735-0.775h2c2.604,0,4.773,2.087,5.192,4.819
			c0.846-0.516,1.813-0.819,2.808-0.819h1c2.903,0,5.265,2.594,5.265,5.782v16.302C60.869,58.146,56.578,62.737,50.665,62.737z
			 M6.604,52.737c-1.38,0-2.735,1.378-2.735,2.782v2c0,1.37,1.42,2.218,2.735,2.218h44.061c4.309,0,7.204-3.181,7.204-7.916V35.519
			c0-1.344-0.91-2.782-2.265-2.782h-1c-1.355,0-2.735,1.404-2.735,2.782c0,0.828-0.671,1.5-1.5,1.5s-1.5-0.672-1.5-1.5v-4
			c0-1.338-0.866-2.782-2.265-2.782h-2c-1.355,0-2.735,1.404-2.735,2.782c0,0.828-0.671,1.5-1.5,1.5s-1.5-0.672-1.5-1.5v-7
			c0-1.338-0.866-2.782-2.265-2.782h-1c-1.355,0-2.735,1.404-2.735,2.782c0,0.828-0.671,1.5-1.5,1.5s-1.5-0.672-1.5-1.5V9.141
			c0-1.949-0.818-2.745-2.823-2.745c-2.108,0-3.177,0.924-3.177,2.745v42.096c0,0.829-0.671,1.5-1.5,1.5H6.604z"/>
		<path id="path-3_20_" d="M35.349,7.528c-0.55,0-1.08-0.303-1.343-0.829c-0.37-0.741-0.07-1.642,0.671-2.012l9.057-4.529
			c0.741-0.37,1.642-0.07,2.012,0.671c0.37,0.74,0.07,1.641-0.67,2.012L36.019,7.37C35.804,7.477,35.575,7.528,35.349,7.528z"/>
		<path id="path-4_19_" d="M44.869,10.737h-9c-0.829,0-1.5-0.671-1.5-1.5s0.671-1.5,1.5-1.5h9c0.829,0,1.5,0.671,1.5,1.5
			S45.698,10.737,44.869,10.737z"/>
		<path id="path-5_15_" d="M18.503,7.528c-0.226,0-0.455-0.051-0.67-0.158L8.776,2.841C8.035,2.47,7.735,1.569,8.105,0.829
			c0.372-0.741,1.274-1.041,2.013-0.671l9.057,4.529c0.74,0.37,1.041,1.271,0.671,2.012C19.582,7.225,19.053,7.528,18.503,7.528z"/>
		<path id="path-6_14_" d="M18.869,10.737h-10c-0.829,0-1.5-0.671-1.5-1.5s0.671-1.5,1.5-1.5h10c0.829,0,1.5,0.671,1.5,1.5
			S19.698,10.737,18.869,10.737z"/>
	</g>
</g>
<g>
</g>
<g>
</g>
<g>
</g>
<g>
</g>
<g>
</g>
<g>
</g>
<g>
</g>
<g>
</g>
<g>
</g>
<g>
</g>
<g>
</g>
<g>
</g>
<g>
</g>
<g>
</g>
<g>
</g>
</svg>
