<?xml version="1.0" encoding="iso-8859-1"?>
<!-- Generator: Adobe Illustrator 19.1.0, SVG Export Plug-In . SVG Version: 6.00 Build 0)  -->
<svg version="1.1" id="Capa_1" xmlns="http://www.w3.org/2000/svg" xmlns:xlink="http://www.w3.org/1999/xlink" x="0px" y="0px"
	 viewBox="0 0 67.231 67.231" style="enable-background:new 0 0 67.231 67.231;" xml:space="preserve">
<g>
	<g id="group-2svg">
		<path id="path-1_11_" style="fill:#8B71B5;" d="M63.489,55.552h3v-10H21.141l1.921,10h3.427l0,0"/>
		<path id="path-2_11_" style="fill:#E56A77;" d="M21.141,45.552h36.488l9.602-20h-50.99L21.141,45.552z"/>
		<path id="path-3_11_" style="fill:#EDC951;" d="M62.141,56.206c0,3.181-2.579,5.761-5.76,5.761c-3.182,0-5.762-2.58-5.762-5.761
			c0-3.182,2.58-5.761,5.762-5.761C59.562,50.445,62.141,53.024,62.141,56.206z"/>
		<path id="path-4_11_" style="fill:#EDC951;" d="M39.05,56.206c0,3.181-2.581,5.761-5.762,5.761c-3.182,0-5.761-2.58-5.761-5.761
			c0-3.182,2.579-5.761,5.761-5.761C36.469,50.445,39.05,53.024,39.05,56.206z"/>
		<path id="path-5_11_" style="fill:#53ECF4;" d="M31.278,23.034l6.679,10.291c0.976,1.463,3.117,1.637,4.133,0.201l7.071-10.51
			c1.175-1.66-0.013-4.464-2.047-4.464h-2.625V7.28c0-0.55-0.085-0.728-0.635-0.728h-6c-0.553,0-1.365,0.176-1.365,0.728v11.272
			h-3.126C31.359,18.552,30.165,21.367,31.278,23.034z"/>
		<path id="path-6_11_" d="M51.629,45.552H15.141c-0.691,0-1.292-0.472-1.457-1.143l-4.9-20c-0.109-0.448-0.008-0.92,0.277-1.283
			c0.284-0.362,0.719-0.574,1.18-0.574h11.248c0.828,0,1.5,0.671,1.5,1.5s-0.672,1.5-1.5,1.5h-9.336l4.165,17h34.367l8.162-17
			H48.489c-0.828,0-1.5-0.671-1.5-1.5s0.672-1.5,1.5-1.5h12.742c0.516,0,0.995,0.265,1.27,0.701
			c0.274,0.437,0.305,0.983,0.083,1.448l-9.603,20C52.731,45.221,52.206,45.552,51.629,45.552z"/>
		<path id="path-7_8_" d="M60.989,56.552h-3.5c-0.828,0-1.5-0.671-1.5-1.5s0.672-1.5,1.5-1.5h2v-8H16.925l1.398,8h2.166
			c0.828,0,1.5,0.671,1.5,1.5s-0.672,1.5-1.5,1.5h-3.427c-0.728,0-1.352-0.524-1.477-1.242l-1.921-11
			c-0.076-0.436,0.044-0.884,0.329-1.223s0.705-0.535,1.148-0.535h45.848c0.828,0,1.5,0.671,1.5,1.5v11
			C62.489,55.881,61.817,56.552,60.989,56.552z"/>
		<path id="path-8_7_" d="M43.489,56.552h-10c-0.828,0-1.5-0.671-1.5-1.5s0.672-1.5,1.5-1.5h10c0.828,0,1.5,0.671,1.5,1.5
			S44.317,56.552,43.489,56.552z"/>
		<path id="path-9_5_" d="M50.381,62.679c-4.004,0-7.262-3.257-7.262-7.261s3.258-7.262,7.262-7.262c4.003,0,7.26,3.258,7.26,7.262
			S54.384,62.679,50.381,62.679z M50.381,51.156c-2.35,0-4.262,1.912-4.262,4.262c0,2.349,1.912,4.261,4.262,4.261
			c2.349,0,4.26-1.912,4.26-4.261C54.641,53.068,52.73,51.156,50.381,51.156z"/>
		<path id="path-10_3_" d="M27.288,62.679c-4.004,0-7.261-3.257-7.261-7.261s3.257-7.262,7.261-7.262s7.262,3.258,7.262,7.262
			S31.292,62.679,27.288,62.679z M27.288,51.156c-2.35,0-4.261,1.912-4.261,4.262c0,2.349,1.911,4.261,4.261,4.261
			c2.349,0,4.261-1.912,4.261-4.261C31.549,53.068,29.637,51.156,27.288,51.156z"/>
		<path id="path-11_1_" d="M17.061,55.958c-0.676,0-1.29-0.46-1.457-1.146L6.002,15.321c-0.028-0.117-0.042-0.236-0.042-0.355
			c0-0.665-0.674-1.227-1.472-1.227C3.653,13.739,3,14.429,3,15.31c0,0.542,0.265,1.042,0.712,1.338
			c0.689,0.458,0.878,1.389,0.42,2.079c-0.459,0.691-1.388,0.879-2.081,0.421C0.767,18.294,0,16.86,0,15.31
			c0-2.52,2.013-4.571,4.488-4.571c2.395,0,4.355,1.789,4.467,4.027l9.565,39.337c0.196,0.805-0.299,1.616-1.103,1.812
			C17.298,55.944,17.178,55.958,17.061,55.958z"/>
		<path id="path-12_1_" d="M35.707,35.927L35.707,35.927c-1.4,0-2.708-0.708-3.5-1.894l-6.695-10.44
			c-0.876-1.311-0.897-3.212-0.038-4.819c0.744-1.391,2.01-2.222,3.386-2.222h1.629V7.28c0-1.469,1.574-2.728,2.862-2.728h6
			c0.358,0,2.138,0.132,2.138,2.728v9.272h1.122c1.417,0,2.702,0.848,3.438,2.269c0.825,1.594,0.76,3.47-0.166,4.78l-7.044,10.688
			C38.093,35.344,36.962,35.927,35.707,35.927z M28.86,19.552c-0.295,0-0.575,0.329-0.74,0.636
			c-0.322,0.605-0.365,1.363-0.098,1.763l6.695,10.439c0.26,0.39,0.685,0.537,0.99,0.537c0.28,0,0.5-0.111,0.655-0.33l7.045-10.688
			c0.295-0.419,0.273-1.136-0.023-1.709c-0.162-0.313-0.451-0.648-0.773-0.648h-4.122v-12h-4.993
			c-0.002,0.001-0.005,0.003-0.007,0.005v11.995H28.86z"/>
	</g>
</g>
<g>
</g>
<g>
</g>
<g>
</g>
<g>
</g>
<g>
</g>
<g>
</g>
<g>
</g>
<g>
</g>
<g>
</g>
<g>
</g>
<g>
</g>
<g>
</g>
<g>
</g>
<g>
</g>
<g>
</g>
</svg>
