<?xml version="1.0" encoding="iso-8859-1"?>
<!-- Generator: Adobe Illustrator 19.1.0, SVG Export Plug-In . SVG Version: 6.00 Build 0)  -->
<svg version="1.1" id="Capa_1" xmlns="http://www.w3.org/2000/svg" xmlns:xlink="http://www.w3.org/1999/xlink" x="0px" y="0px"
	 viewBox="0 0 67.5 67.5" style="enable-background:new 0 0 67.5 67.5;" xml:space="preserve">
<g>
	<g id="group-30svg">
		<path id="path-1_23_" style="fill:#FF917B;" d="M7.5,27.772l1.504-10.143c0.358-5.028,4.601-8.879,9.716-8.879h37.841
			c5.115,0,9.358,3.851,9.716,8.879L67.5,28.017l0,0"/>
		<path id="path-2_23_" style="fill:#EDC951;" d="M67,55.75c0,4.418-3.582,8-8,8H15c-4.418,0-8-3.582-8-8v-27c0-4.419,3.582-8,8-8
			h44c4.418,0,8,3.581,8,8V55.75z"/>
		<path id="path-3_23_" style="fill:#8B71B5;" d="M32.141,8.75h11.176L45,21.648v18.124c0,1.657-1.774,2.978-3.431,2.978h-8
			c-1.65,0-2.569-1.328-2.569-2.978V21.648L32.141,8.75z"/>
		<path id="path-4_22_" d="M53.5,61.75h-44c-5.238,0-9.5-4.262-9.5-9.5v-27c0-5.238,4.262-9.5,9.5-9.5h44c5.238,0,9.5,4.262,9.5,9.5
			v27C63,57.488,58.738,61.75,53.5,61.75z M9.5,18.75c-3.584,0-6.5,2.916-6.5,6.5v27c0,3.584,2.916,6.5,6.5,6.5h44
			c3.584,0,6.5-2.916,6.5-6.5v-27c0-3.584-2.916-6.5-6.5-6.5H9.5z"/>
		<path id="path-5_18_" d="M61.498,26.392c-0.751,0-1.399-0.563-1.488-1.327l-1.222-10.512c-0.316-4.405-3.927-7.803-8.226-7.803
			H12.72c-4.301,0-7.91,3.398-8.22,7.736c-0.002,0.036-0.006,0.072-0.011,0.108L2.984,24.987c-0.118,0.82-0.882,1.389-1.699,1.27
			c-0.82-0.119-1.388-0.88-1.269-1.699l1.496-10.341C1.959,8.343,6.872,3.75,12.72,3.75h37.842c5.866,0,10.791,4.622,11.211,10.522
			l1.217,10.446c0.095,0.823-0.494,1.568-1.317,1.664C61.614,26.388,61.556,26.392,61.498,26.392z"/>
		<path id="path-6_16_" d="M35.569,40.75h-8c-2.615,0-4.569-2.628-4.569-4.978V17.648c0-0.072,0.005-0.143,0.015-0.214l1.64-11.398
			c0.107-0.738,0.739-1.286,1.485-1.286h11.177c0.769,0,1.413,0.581,1.493,1.345l1.182,11.398C39.998,17.545,40,17.596,40,17.648
			v18.124C40,38.126,38.18,40.75,35.569,40.75z M26,17.755v18.017c0,0.906,0.851,1.978,1.569,1.978h8
			c0.682,0,1.431-1.035,1.431-1.978V17.726L35.965,7.75H27.44L26,17.755z"/>
	</g>
</g>
<g>
</g>
<g>
</g>
<g>
</g>
<g>
</g>
<g>
</g>
<g>
</g>
<g>
</g>
<g>
</g>
<g>
</g>
<g>
</g>
<g>
</g>
<g>
</g>
<g>
</g>
<g>
</g>
<g>
</g>
</svg>
