<?xml version="1.0" encoding="iso-8859-1"?>
<!-- Generator: Adobe Illustrator 19.1.0, SVG Export Plug-In . SVG Version: 6.00 Build 0)  -->
<svg version="1.1" id="Capa_1" xmlns="http://www.w3.org/2000/svg" xmlns:xlink="http://www.w3.org/1999/xlink" x="0px" y="0px"
	 viewBox="0 0 66.231 66.231" style="enable-background:new 0 0 66.231 66.231;" xml:space="preserve">
<g>
	<g id="group-4svg">
		<path id="path-1_24_" style="fill:#8B71B5;" d="M62.946,52.535h3v-10H20.142l1.92,10h3.884l0,0"/>
		<path id="path-2_24_" style="fill:#E56A77;" d="M20.142,42.535h36.487l9.602-20h-50.99L20.142,42.535z"/>
		<path id="path-3_24_" style="fill:#EDC951;" d="M61.142,53.575c0,3.182-2.579,5.761-5.761,5.761c-3.183,0-5.762-2.579-5.762-5.761
			s2.579-5.761,5.762-5.761C58.563,47.813,61.142,50.393,61.142,53.575z"/>
		<path id="path-4_23_" style="fill:#EDC951;" d="M38.049,53.575c0,3.182-2.579,5.761-5.761,5.761c-3.181,0-5.761-2.579-5.761-5.761
			s2.58-5.761,5.761-5.761C35.47,47.813,38.049,50.393,38.049,53.575z"/>
		<path id="path-5_19_" d="M51.629,41.535H15.142c-0.692,0-1.292-0.472-1.457-1.143l-4.901-20c-0.109-0.448-0.007-0.92,0.278-1.283
			c0.284-0.362,0.718-0.574,1.179-0.574h50.99c0.515,0,0.995,0.265,1.269,0.701c0.275,0.437,0.306,0.983,0.083,1.448l-9.601,20
			C52.732,41.203,52.206,41.535,51.629,41.535z M16.319,38.535h34.367l8.161-17H12.154L16.319,38.535z"/>
		<path id="path-6_17_" d="M61.446,51.535h-4.5c-0.828,0-1.5-0.671-1.5-1.5s0.672-1.5,1.5-1.5h3v-7H16.957l1.344,7h2.645
			c0.829,0,1.5,0.671,1.5,1.5s-0.671,1.5-1.5,1.5h-3.884c-0.72,0-1.338-0.511-1.473-1.217l-1.92-10
			c-0.085-0.44,0.031-0.894,0.317-1.239c0.285-0.344,0.709-0.544,1.156-0.544h46.304c0.829,0,1.5,0.671,1.5,1.5v10
			C62.946,50.863,62.275,51.535,61.446,51.535z"/>
		<path id="path-7_11_" d="M43.946,51.535h-10c-0.828,0-1.5-0.671-1.5-1.5s0.672-1.5,1.5-1.5h10c0.829,0,1.5,0.671,1.5,1.5
			S44.775,51.535,43.946,51.535z"/>
		<path id="path-8_9_" d="M50.381,58.835c-4.004,0-7.262-3.257-7.262-7.261s3.258-7.261,7.262-7.261s7.261,3.257,7.261,7.261
			S54.385,58.835,50.381,58.835z M50.381,47.313c-2.35,0-4.262,1.911-4.262,4.261c0,2.35,1.912,4.261,4.262,4.261
			c2.35,0,4.261-1.911,4.261-4.261C54.642,49.224,52.731,47.313,50.381,47.313z"/>
		<path id="path-9_7_" d="M27.288,58.835c-4.004,0-7.261-3.257-7.261-7.261s3.257-7.261,7.261-7.261s7.261,3.257,7.261,7.261
			S31.292,58.835,27.288,58.835z M27.288,47.313c-2.349,0-4.26,1.911-4.26,4.261c0,2.35,1.911,4.261,4.26,4.261
			c2.35,0,4.261-1.911,4.261-4.261C31.549,49.224,29.638,47.313,27.288,47.313z"/>
		<path id="path-10_5_" d="M17.061,51.115c-0.676,0-1.29-0.46-1.457-1.146L6.015,10.527c-0.22-0.223-0.846-0.631-1.527-0.631
			C3.653,9.896,3,10.586,3,11.468c0,0.542,0.266,1.042,0.712,1.337c0.69,0.459,0.878,1.39,0.419,2.08
			c-0.457,0.69-1.388,0.878-2.079,0.419C0.767,14.451,0,13.016,0,11.468c0-2.521,2.014-4.572,4.488-4.572
			c2.095,0,4.227,1.457,4.453,2.967l9.579,39.397c0.195,0.805-0.299,1.617-1.104,1.813C17.297,51.101,17.178,51.115,17.061,51.115z"
			/>
		<path id="path-11_3_" d="M36.129,28.535c0.452,0,0.841,0.267,1.168,0.002c0.325-0.265,0.488-0.446,0.488-0.941
			c0-0.378-0.129-0.603-0.389-0.876c-0.26-0.271-0.612-0.358-1.053-0.358c-0.299,0-0.546,0.067-0.74,0.149
			c-0.195,0.085-0.347,0.206-0.46,0.345c-0.114,0.137-0.221,0.32-0.321,0.536c-0.1,0.215-0.192,0.422-0.276,0.614
			c-0.049,0.103-0.137,0.186-0.266,0.245c-0.126,0.059-0.274,0.089-0.441,0.089c-0.195,0-0.377-0.079-0.541-0.239
			c-0.165-0.16-0.247-0.372-0.247-0.637c0-0.255,0.078-0.524,0.232-0.806c0.156-0.282,0.38-0.551,0.678-0.806
			c0.297-0.256,0.666-0.461,1.108-0.614c0.442-0.156,0.935-0.233,1.48-0.233c0.477,0,0.911,0.065,1.303,0.195
			c0.393,0.13,0.734,0.318,1.023,0.564c0.291,0.244,0.509,0.53,0.655,0.854c0.148,0.324,0.222,0.671,0.222,1.046
			c0,0.49-0.106,0.911-0.32,1.262c-0.213,0.351-0.52,0.694-0.917,1.026c0.383,0.207,0.706,0.442,0.969,0.708
			c0.261,0.265,0.459,0.559,0.591,0.881c0.133,0.32,0.2,0.667,0.2,1.041c0,0.447-0.09,0.878-0.269,1.296
			c-0.18,0.417-0.442,0.789-0.792,1.115c-0.348,0.327-0.762,0.583-1.24,0.766c-0.479,0.185-1.008,0.276-1.587,0.276
			c-0.589,0-1.116-0.106-1.583-0.316c-0.466-0.212-0.851-0.475-1.152-0.791c-0.302-0.317-0.531-0.646-0.685-0.984
			c-0.154-0.339-0.232-0.619-0.232-0.84c0-0.284,0.092-0.513,0.276-0.688c0.184-0.175,0.414-0.26,0.688-0.26
			c0.138,0,0.271,0.039,0.398,0.121c0.128,0.08,0.211,0.177,0.25,0.291c0.256,0.681,0.529,1.188,0.822,1.521
			c0.291,0.33,0.702,0.496,1.233,0.496c0.304,0,0.597-0.075,0.88-0.225c0.282-0.149,0.515-0.372,0.7-0.667
			c0.183-0.294,0.275-0.635,0.275-1.022c0-0.575-0.157-1.025-0.472-1.351c-0.313-0.328-0.751-0.49-1.31-0.49
			c-0.098,0-0.25,0.008-0.456,0.03c-0.206,0.018-0.339,0.029-0.398,0.029c-0.269,0-0.478-0.067-0.626-0.202
			c-0.147-0.137-0.22-0.324-0.22-0.564c0-0.235,0.088-0.826,0.264-0.97c0.177-0.145,0.44-0.618,0.788-0.618H36.129z"/>
	</g>
</g>
<g>
</g>
<g>
</g>
<g>
</g>
<g>
</g>
<g>
</g>
<g>
</g>
<g>
</g>
<g>
</g>
<g>
</g>
<g>
</g>
<g>
</g>
<g>
</g>
<g>
</g>
<g>
</g>
<g>
</g>
</svg>
