<?xml version="1.0" encoding="iso-8859-1"?>
<!-- Generator: Adobe Illustrator 19.1.0, SVG Export Plug-In . SVG Version: 6.00 Build 0)  -->
<svg version="1.1" id="Capa_1" xmlns="http://www.w3.org/2000/svg" xmlns:xlink="http://www.w3.org/1999/xlink" x="0px" y="0px"
	 viewBox="0 0 66.231 66.231" style="enable-background:new 0 0 66.231 66.231;" xml:space="preserve">
<g>
	<g id="group-5svg">
		<path id="path-1_25_" style="fill:#8B71B5;" d="M62.613,52.535h3v-10H20.141l1.921,10h3.551l0,0"/>
		<path id="path-2_25_" style="fill:#E56A77;" d="M20.141,42.535h36.488l9.602-20h-50.99L20.141,42.535z"/>
		<path id="path-3_25_" style="fill:#EDC951;" d="M61.141,53.575c0,3.182-2.579,5.761-5.76,5.761c-3.182,0-5.761-2.579-5.761-5.761
			s2.579-5.761,5.761-5.761C58.562,47.813,61.141,50.393,61.141,53.575z"/>
		<path id="path-4_24_" style="fill:#EDC951;" d="M38.049,53.575c0,3.182-2.58,5.761-5.761,5.761c-3.182,0-5.761-2.579-5.761-5.761
			s2.579-5.761,5.761-5.761C35.469,47.813,38.049,50.393,38.049,53.575z"/>
		<path id="path-5_20_" d="M51.629,41.535H15.141c-0.691,0-1.293-0.472-1.457-1.143l-4.9-20c-0.109-0.448-0.008-0.92,0.277-1.283
			c0.284-0.362,0.719-0.574,1.18-0.574h50.99c0.516,0,0.995,0.265,1.27,0.701c0.274,0.437,0.305,0.983,0.083,1.448l-9.603,20
			C52.731,41.203,52.206,41.535,51.629,41.535z M16.318,38.535h34.367l8.162-17H12.153L16.318,38.535z"/>
		<path id="path-6_18_" d="M61.113,51.535h-4.5c-0.828,0-1.5-0.671-1.5-1.5s0.672-1.5,1.5-1.5h3v-7H16.957l1.344,7h2.312
			c0.828,0,1.5,0.671,1.5,1.5s-0.672,1.5-1.5,1.5h-3.551c-0.72,0-1.337-0.511-1.472-1.217l-1.921-10
			c-0.085-0.44,0.031-0.894,0.316-1.238c0.285-0.345,0.709-0.545,1.156-0.545h45.972c0.828,0,1.5,0.671,1.5,1.5v10
			C62.613,50.863,61.941,51.535,61.113,51.535z"/>
		<path id="path-7_12_" d="M43.613,51.535h-10c-0.828,0-1.5-0.671-1.5-1.5s0.672-1.5,1.5-1.5h10c0.828,0,1.5,0.671,1.5,1.5
			S44.441,51.535,43.613,51.535z"/>
		<path id="path-8_10_" d="M50.381,58.835c-4.004,0-7.261-3.257-7.261-7.261s3.257-7.261,7.261-7.261c4.003,0,7.26,3.257,7.26,7.261
			S54.384,58.835,50.381,58.835z M50.381,47.313c-2.35,0-4.261,1.911-4.261,4.261c0,2.35,1.911,4.261,4.261,4.261
			c2.349,0,4.26-1.911,4.26-4.261C54.641,49.224,52.73,47.313,50.381,47.313z"/>
		<path id="path-9_8_" d="M27.288,58.835c-4.004,0-7.261-3.257-7.261-7.261s3.257-7.261,7.261-7.261s7.262,3.257,7.262,7.261
			S31.292,58.835,27.288,58.835z M27.288,47.313c-2.35,0-4.261,1.911-4.261,4.261c0,2.35,1.911,4.261,4.261,4.261
			c2.349,0,4.261-1.911,4.261-4.261C31.549,49.224,29.637,47.313,27.288,47.313z"/>
		<path id="path-10_6_" d="M17.061,51.115c-0.673,0-1.284-0.455-1.454-1.137L6.005,11.485c-0.031-0.119-0.045-0.241-0.045-0.363
			c0-0.665-0.674-1.227-1.472-1.227C3.653,9.895,3,10.585,3,11.467c0,0.542,0.265,1.042,0.712,1.337
			c0.689,0.459,0.878,1.39,0.419,2.08c-0.458,0.69-1.388,0.878-2.08,0.419C0.766,14.45,0,13.015,0,11.467
			c0-2.521,2.013-4.572,4.488-4.572c2.393,0,4.352,1.786,4.467,4.022l9.562,38.334c0.201,0.803-0.288,1.617-1.092,1.818
			C17.303,51.101,17.181,51.115,17.061,51.115z"/>
		<path id="path-11_4_" d="M36.739,34.535h-4.126c-0.553,0-1-0.448-1-1c0-0.552,0.447-1,1-1h4.126c0.227,0,0.874-0.084,0.874-0.457
			c0-0.371-0.521-0.543-0.874-0.543h-2.006c-1.413,0-3.12-1.308-3.12-2.933v-0.343c0-1.559,1.647-2.724,3.12-2.724h3.88
			c0.553,0,1,0.448,1,1s-0.447,1-1,1h-3.88c-0.519,0-1.12,0.438-1.12,0.724v0.343c0,0.338,0.647,0.933,1.12,0.933h2.006
			c1.611,0,2.874,1.116,2.874,2.541C39.613,33.501,38.404,34.535,36.739,34.535z"/>
		<path id="path-12_3_" d="M35.613,36.535c-0.553,0-1-0.448-1-1v-11c0-0.552,0.447-1,1-1s1,0.448,1,1v11
			C36.613,36.086,36.166,36.535,35.613,36.535z"/>
	</g>
</g>
<g>
</g>
<g>
</g>
<g>
</g>
<g>
</g>
<g>
</g>
<g>
</g>
<g>
</g>
<g>
</g>
<g>
</g>
<g>
</g>
<g>
</g>
<g>
</g>
<g>
</g>
<g>
</g>
<g>
</g>
</svg>
