<?xml version="1.0" encoding="iso-8859-1"?>
<!-- Generator: Adobe Illustrator 19.1.0, SVG Export Plug-In . SVG Version: 6.00 Build 0)  -->
<svg version="1.1" id="Capa_1" xmlns="http://www.w3.org/2000/svg" xmlns:xlink="http://www.w3.org/1999/xlink" x="0px" y="0px"
	 viewBox="0 0 66.23 66.23" style="enable-background:new 0 0 66.23 66.23;" xml:space="preserve">
<g>
	<g id="group-9svg">
		<path id="path-1_29_" style="fill:#8B71B5;" d="M62.878,52.534h3v-10H20.141l1.921,10h3.816l0,0"/>
		<path id="path-2_29_" style="fill:#E56A77;" d="M20.141,42.534h36.487l9.602-20H15.241L20.141,42.534z"/>
		<path id="path-3_29_" style="fill:#EDC951;" d="M61.141,53.574c0,3.182-2.579,5.761-5.761,5.761s-5.761-2.579-5.761-5.761
			s2.579-5.761,5.761-5.761C58.562,47.813,61.141,50.392,61.141,53.574z"/>
		<path id="path-4_28_" style="fill:#EDC951;" d="M38.049,53.574c0,3.182-2.58,5.761-5.761,5.761c-3.182,0-5.762-2.579-5.762-5.761
			s2.58-5.761,5.762-5.761C35.469,47.813,38.049,50.392,38.049,53.574z"/>
		<path id="path-5_24_" d="M51.628,41.534H15.141c-0.691,0-1.292-0.472-1.457-1.143l-4.9-20c-0.11-0.448-0.008-0.92,0.277-1.283
			c0.284-0.362,0.719-0.574,1.18-0.574h50.99c0.515,0,0.995,0.265,1.269,0.701c0.274,0.437,0.306,0.983,0.083,1.448l-9.602,20
			C52.731,41.203,52.205,41.534,51.628,41.534z M16.318,38.534h34.367l8.161-17H12.153L16.318,38.534z"/>
		<path id="path-6_22_" d="M61.378,51.534h-4.5c-0.829,0-1.5-0.671-1.5-1.5s0.671-1.5,1.5-1.5h3v-7H16.957l1.344,7h2.577
			c0.829,0,1.5,0.671,1.5,1.5s-0.671,1.5-1.5,1.5h-3.816c-0.72,0-1.338-0.511-1.474-1.217l-1.92-10
			c-0.084-0.44,0.032-0.894,0.317-1.238c0.285-0.345,0.709-0.545,1.156-0.545h46.237c0.829,0,1.5,0.671,1.5,1.5v10
			C62.878,50.863,62.207,51.534,61.378,51.534z"/>
		<path id="path-7_16_" d="M43.878,51.534h-10c-0.829,0-1.5-0.671-1.5-1.5s0.671-1.5,1.5-1.5h10c0.829,0,1.5,0.671,1.5,1.5
			S44.707,51.534,43.878,51.534z"/>
		<path id="path-8_14_" d="M50.38,58.835c-4.004,0-7.261-3.257-7.261-7.261s3.257-7.261,7.261-7.261s7.261,3.257,7.261,7.261
			S54.384,58.835,50.38,58.835z M50.38,47.313c-2.35,0-4.261,1.911-4.261,4.261c0,2.35,1.911,4.261,4.261,4.261
			s4.261-1.911,4.261-4.261S52.73,47.313,50.38,47.313z"/>
		<path id="path-9_12_" d="M27.288,58.835c-4.004,0-7.262-3.257-7.262-7.261s3.258-7.261,7.262-7.261s7.261,3.257,7.261,7.261
			S31.292,58.835,27.288,58.835z M27.288,47.313c-2.35,0-4.262,1.911-4.262,4.261c0,2.35,1.912,4.261,4.262,4.261
			c2.349,0,4.261-1.911,4.261-4.261S29.637,47.313,27.288,47.313z"/>
		<path id="path-10_10_" d="M17.061,51.114c-0.673,0-1.285-0.455-1.455-1.137L6.004,11.485c-0.029-0.119-0.044-0.241-0.044-0.363
			c0-0.665-0.675-1.227-1.473-1.227C3.653,9.895,3,10.585,3,11.467c0,0.542,0.266,1.042,0.711,1.338
			c0.69,0.458,0.878,1.389,0.419,2.079c-0.458,0.69-1.388,0.878-2.079,0.419C0.766,14.45,0,13.015,0,11.467
			c0-2.521,2.013-4.572,4.487-4.572c2.393,0,4.354,1.786,4.467,4.022l9.563,38.334c0.2,0.803-0.288,1.617-1.092,1.818
			C17.303,51.1,17.181,51.114,17.061,51.114z"/>
		<path id="path-11_8_" d="M34.378,38.034c-0.829,0-1.5-0.671-1.5-1.5v-10c0-0.829,0.671-1.5,1.5-1.5s1.5,0.671,1.5,1.5v10
			C35.878,37.363,35.207,38.034,34.378,38.034z"/>
		<path id="path-12_5_" d="M38.878,33.534h-9c-0.829,0-1.5-0.671-1.5-1.5c0-0.829,0.671-1.5,1.5-1.5h9c0.829,0,1.5,0.671,1.5,1.5
			C40.378,32.863,39.707,33.534,38.878,33.534z"/>
	</g>
</g>
<g>
</g>
<g>
</g>
<g>
</g>
<g>
</g>
<g>
</g>
<g>
</g>
<g>
</g>
<g>
</g>
<g>
</g>
<g>
</g>
<g>
</g>
<g>
</g>
<g>
</g>
<g>
</g>
<g>
</g>
</svg>
